<svg version="1.1" id="Layer_1" xmlns="http://www.w3.org/2000/svg" xmlns:xlink="http://www.w3.org/1999/xlink" x="0px" y="0px"
	 width="100%" viewBox="0 0 1024 1024" enable-background="new 0 0 1024 1024" xml:space="preserve">
<path fill="#010101" opacity="1.000000" stroke="none" 
	d="
M701.000000,1025.000000 
	C467.333344,1025.000000 234.166672,1025.000000 1.000000,1025.000000 
	C1.000000,683.666687 1.000000,342.333344 1.000000,1.000000 
	C342.333344,1.000000 683.666687,1.000000 1025.000000,1.000000 
	C1025.000000,342.333344 1025.000000,683.666687 1025.000000,1025.000000 
	C917.166687,1025.000000 809.333313,1025.000000 701.000000,1025.000000 
M605.469116,245.285400 
	C602.334717,244.842545 599.207581,244.339020 596.064880,243.965927 
	C547.021423,238.143524 498.006500,239.344101 448.914459,243.784470 
	C422.435181,246.179504 399.912628,256.624603 379.955444,273.572418 
	C370.688751,281.441803 361.251495,289.117737 352.170197,297.194672 
	C347.939056,300.957855 344.039307,300.442230 339.196411,298.052582 
	C340.145691,296.153076 340.933319,294.537476 341.755005,292.939392 
	C345.924347,284.830841 343.032501,278.174042 333.813477,277.249847 
	C320.618256,275.927032 307.437012,277.134888 295.174316,282.766754 
	C287.984070,286.069061 286.988861,294.238983 292.932098,299.630402 
	C295.602783,302.053101 298.768829,304.073914 302.001617,305.696014 
	C305.956573,307.680481 310.217407,309.055237 314.595428,310.792603 
	C311.660400,314.855957 308.475067,318.481354 306.183441,322.603546 
	C301.573364,330.896118 301.121979,340.131470 301.501923,349.350861 
	C302.921661,383.799896 304.422546,418.245758 305.996490,452.688080 
	C306.418793,461.929901 312.389038,468.395996 321.836853,468.805176 
	C339.302002,469.561707 356.795868,469.670471 374.279205,469.962677 
	C375.499451,469.983063 377.424561,469.663635 377.849243,468.872620 
	C381.455902,462.155182 388.195984,461.694427 394.278534,461.279785 
	C407.215302,460.397888 420.217102,460.145355 433.189880,460.200256 
	C448.841675,460.266479 464.491791,461.256439 480.141113,461.218597 
	C494.621674,461.183563 509.097656,460.000214 523.580139,459.884460 
	C559.226257,459.599579 594.877991,459.354187 630.520752,459.726990 
	C640.583679,459.832214 650.635071,462.048065 660.663269,463.493622 
	C662.369507,463.739563 664.702698,464.561554 665.416809,465.852692 
	C667.665771,469.919220 671.282043,469.742523 674.912048,469.728638 
	C688.738770,469.675751 702.565613,469.584351 716.391602,469.429901 
	C728.173218,469.298309 734.735718,463.644745 736.112366,451.927582 
	C737.044128,443.997040 737.410217,435.994598 737.871216,428.015198 
	C739.379761,401.907623 740.871826,375.798767 742.255676,349.684357 
	C742.918396,337.178436 740.423035,325.487732 732.514526,315.369476 
	C731.356140,313.887451 730.279358,312.341614 729.127686,310.774689 
	C735.132629,307.707031 740.469360,305.024414 745.764648,302.262390 
	C750.362122,299.864349 753.570312,296.381256 753.166382,290.847504 
	C752.755493,285.218781 748.915894,281.923065 743.929688,280.994690 
	C734.003296,279.146637 723.963684,277.560944 713.905273,276.954498 
	C710.371643,276.741425 706.318787,279.218567 703.084900,281.350098 
	C698.255493,284.533325 697.722900,288.266479 700.331177,293.501495 
	C701.163452,295.171906 702.059753,296.810364 702.926819,298.463409 
	C702.601807,298.990509 702.276855,299.517578 701.951904,300.044678 
	C698.659851,299.251709 694.554382,299.438812 692.215332,297.497559 
	C681.595581,288.683777 671.498108,279.242615 661.167053,270.078613 
	C645.462158,256.147888 626.822876,248.706909 605.469116,245.285400 
M87.831985,575.912720 
	C86.525467,584.995789 86.792313,594.574463 78.706650,601.812866 
	C89.848846,601.812866 100.024651,601.812866 109.715935,601.812866 
	C107.899757,598.264954 104.530884,594.752441 104.631134,591.341919 
	C105.038544,577.481140 106.510254,563.651733 107.589539,549.810730 
	C107.981499,549.693787 108.373459,549.576843 108.765427,549.459900 
	C118.790054,567.879456 128.814682,586.299072 138.981247,604.979431 
	C150.798935,585.143005 162.330002,565.787720 173.861084,546.432373 
	C174.387863,546.601318 174.914642,546.770325 175.441422,546.939270 
	C176.241196,558.209656 177.191895,569.472107 177.785843,580.753296 
	C178.160645,587.872620 178.644547,595.183289 171.362198,601.274475 
	C183.245514,601.274475 193.755356,601.274475 205.759964,601.274475 
	C197.586273,596.173889 197.627945,588.635071 197.165710,581.397644 
	C195.775269,559.626526 194.542496,537.845398 193.248795,516.068176 
	C192.835815,509.116577 192.319016,502.124939 200.484711,497.891327 
	C196.634415,497.115295 193.179276,497.538483 189.870026,497.023712 
	C183.733704,496.069183 179.840363,498.565369 176.912003,503.712769 
	C166.790527,521.504272 156.544998,539.225098 146.362183,556.981750 
	C144.683151,559.909668 143.081833,562.882202 141.150681,566.363953 
	C137.449036,559.808594 134.125397,554.084229 130.954666,548.276428 
	C122.337448,532.492432 113.826973,516.649902 105.130890,500.909698 
	C104.397209,499.581696 102.643372,498.064117 101.275024,497.973724 
	C96.064697,497.629639 90.818077,497.834900 85.585022,497.834900 
	C85.316269,498.207520 85.047516,498.580109 84.778770,498.952728 
	C93.334427,504.131531 93.200226,512.087219 92.513344,520.232788 
	C90.973907,538.488464 89.450348,556.745422 87.831985,575.912720 
M348.036072,541.500000 
	C347.965454,555.657349 347.767212,569.815796 347.882233,583.971619 
	C347.933777,590.310669 347.489990,596.273499 342.332733,600.810242 
	C342.232605,600.898315 342.489532,601.392212 342.621765,601.838013 
	C353.304993,601.838013 364.020874,601.838013 374.353394,601.838013 
	C372.252228,598.640991 368.748474,595.661377 368.434998,592.377258 
	C367.604401,583.675903 368.153290,574.842896 368.153290,565.801392 
	C373.035858,565.801392 377.482117,565.700317 381.916748,565.882202 
	C382.863251,565.921021 384.038879,566.786804 384.649567,567.611694 
	C390.983521,576.167358 397.656189,584.518555 403.340607,593.492981 
	C407.281372,599.714539 411.866882,602.227539 419.190948,601.532410 
	C426.152069,600.871704 433.225067,601.390198 440.363220,601.390198 
	C425.101715,591.086487 414.157257,577.418945 405.538788,561.805054 
	C406.143494,561.193420 406.331177,560.855774 406.609833,560.743286 
	C418.088501,556.107605 428.581085,540.475464 426.136047,526.301758 
	C423.329742,510.033813 414.078857,499.221222 397.741211,498.241272 
	C378.560211,497.090851 359.257324,497.971924 339.222504,497.971924 
	C340.656769,499.260468 341.430634,500.089111 342.331573,500.742584 
	C346.876434,504.039124 348.683441,508.229858 348.318298,514.028992 
	C347.764587,522.823669 348.087433,531.673523 348.036072,541.500000 
M881.524902,506.091583 
	C876.756226,510.431000 870.988647,514.072327 867.386353,519.226929 
	C848.636658,546.055420 858.492493,583.236450 887.784668,597.949829 
	C907.846436,608.026794 931.364990,604.682678 947.617065,589.442505 
	C964.208252,573.884338 969.648438,549.639465 961.075439,529.463257 
	C947.972595,498.626221 912.337830,487.906647 881.524902,506.091583 
M580.548340,601.563904 
	C602.813171,601.563904 625.077942,601.563904 647.268616,601.563904 
	C648.616760,591.821045 649.915283,582.437317 651.213806,573.053528 
	C647.005798,580.691589 640.423950,583.958679 631.905151,583.963440 
	C625.075806,583.967285 618.246826,584.199036 611.417114,584.264221 
	C605.807922,584.317749 600.197815,584.275085 594.613403,584.275085 
	C594.613403,575.461548 594.613403,567.401794 594.613403,558.837830 
	C602.502625,558.837830 609.978333,558.784058 617.452820,558.854797 
	C623.409607,558.911194 629.992493,557.090820 634.364746,563.919556 
	C634.364746,554.843323 634.364746,545.767029 634.364746,535.145813 
	C628.674988,542.557190 621.603882,540.084473 615.294617,540.567322 
	C608.720581,541.070496 602.078125,540.679565 594.791931,540.679565 
	C594.791931,533.237061 594.673157,526.274353 594.942322,519.326538 
	C594.975891,518.458923 597.044128,516.983582 598.199280,516.954041 
	C607.857605,516.707581 617.523682,516.795715 627.185608,516.657410 
	C634.541748,516.552063 641.549500,517.127441 646.046753,524.156128 
	C646.103149,524.244202 646.585571,524.059692 646.982056,523.979614 
	C646.982056,515.359863 646.982056,506.713776 646.982056,496.772949 
	C620.192871,496.772949 592.809326,496.772949 565.494934,496.772949 
	C565.912231,497.102203 566.509583,497.653839 567.181458,498.090881 
	C572.552734,501.584930 575.533569,506.021484 575.330444,512.932678 
	C574.674561,535.244385 574.524902,557.570679 574.119629,579.890259 
	C573.979675,587.602783 574.983765,595.666992 567.414246,601.602295 
	C572.053040,601.602295 575.812744,601.602295 580.548340,601.563904 
M243.995911,601.899597 
	C244.906372,601.899597 245.816849,601.899597 246.993744,601.899597 
	C241.464249,593.971985 241.464294,593.971985 245.201950,584.500732 
	C245.385223,584.036316 245.626938,583.585022 245.738220,583.103760 
	C246.405823,580.216980 248.130325,579.182190 251.137543,579.196960 
	C263.288574,579.256653 275.440704,579.053589 287.592346,579.062622 
	C288.956909,579.063660 290.748718,579.375305 291.615662,580.257263 
	C297.164856,585.902222 297.831604,594.435669 293.500183,600.758118 
	C293.375977,600.939392 293.602600,601.361084 293.620911,601.451050 
	C303.964355,601.451050 314.250031,601.451050 323.707916,601.451050 
	C306.336151,564.074341 288.994263,526.761963 271.652374,489.449585 
	C271.100800,489.383270 270.549194,489.316986 269.997589,489.250671 
	C252.793839,526.868225 235.590057,564.485779 218.517670,601.816040 
	C226.199753,601.816040 234.648651,601.816040 243.995911,601.899597 
M452.432404,549.650574 
	C452.526062,574.432190 463.921478,591.052429 486.895508,599.915344 
	C506.495667,607.476685 534.235229,601.824585 547.419312,587.472229 
	C545.058105,582.496460 542.669922,577.463867 540.441162,572.767212 
	C534.601440,576.041992 529.415894,579.340027 523.907776,581.960144 
	C511.223511,587.993774 493.651794,585.329224 484.097626,576.263306 
	C473.964203,566.647705 469.647644,548.986633 474.979523,536.083984 
	C479.087830,526.142334 485.844147,518.177612 497.027771,516.174072 
	C510.960724,513.677917 523.881897,516.417358 534.893188,525.934937 
	C536.160339,527.030151 537.528442,528.008484 539.801514,529.784790 
	C539.264771,520.331604 543.241028,513.934448 549.008301,508.061005 
	C546.120667,507.326935 544.306396,507.037262 542.629333,506.391449 
	C540.931091,505.737427 539.374329,504.720123 537.745850,503.880707 
	C518.689331,494.057495 499.439423,493.316772 480.148987,503.023560 
	C461.440399,512.437500 454.834808,529.340210 452.432404,549.650574 
M679.122803,585.154297 
	C678.839050,591.293152 678.190491,597.305298 671.813416,601.584717 
	C698.356812,601.584717 723.388672,601.584717 748.036682,601.584717 
	C749.317566,591.770569 750.519226,582.563721 751.720886,573.356873 
	C751.296021,573.098816 750.871155,572.840698 750.446289,572.582642 
	C749.205505,574.094299 748.129639,575.791748 746.684875,577.073425 
	C744.608521,578.915344 742.377075,581.700745 740.014343,581.915955 
	C726.838989,583.116516 713.603943,583.663330 699.748840,584.470947 
	C699.748840,581.544556 699.739197,579.925110 699.750305,578.305725 
	C699.892883,557.494873 700.319702,536.680115 700.032043,515.875244 
	C699.930176,508.510040 700.857483,502.366913 707.698059,498.394775 
	C707.799133,498.336121 707.629395,497.811371 707.581543,497.472260 
	C695.436279,497.472260 683.304688,497.472260 670.316956,497.472260 
	C675.249512,501.659943 680.306213,504.316193 680.143799,511.294800 
	C679.578003,535.597778 679.444458,559.910828 679.122803,585.154297 
M795.394165,578.578430 
	C795.490295,558.757324 795.870544,538.931580 795.547668,519.117310 
	C795.411865,510.784119 795.440735,503.112640 803.689148,498.328369 
	C803.742554,498.297363 803.663086,498.037415 803.651062,497.931274 
	C791.283630,497.931274 778.927063,497.931274 766.570557,497.931274 
	C774.555298,502.113007 775.603027,508.818146 775.445618,516.707886 
	C775.007141,538.689331 775.137085,560.681641 774.899475,582.668030 
	C774.825012,589.554504 775.408936,596.770569 768.706238,601.550415 
	C793.969299,601.550415 818.769958,601.550415 843.149658,601.550415 
	C844.799438,591.382996 846.308472,582.082764 847.817566,572.782593 
	C841.574036,582.497192 832.167542,583.863403 822.119629,583.792725 
	C814.457092,583.738831 806.788513,583.521118 799.134521,583.758667 
	C795.723267,583.864563 795.135315,582.342346 795.394165,578.578430 
M230.500092,436.308533 
	C181.427643,436.308533 132.355209,436.308533 83.004784,436.308533 
	C82.533463,440.587616 82.124252,444.302826 81.675377,448.378113 
	C153.410751,448.378113 224.583939,448.378113 296.029755,448.378113 
	C296.029755,444.360596 296.029755,440.621918 296.029755,436.309540 
	C274.357300,436.309540 252.928696,436.309540 230.500092,436.308533 
M918.500000,436.101562 
	C861.627625,436.101562 804.755310,436.101562 747.615967,436.101562 
	C747.615967,440.524292 747.615967,444.212524 747.615967,447.927643 
	C817.843445,447.927643 887.658264,447.927643 957.594849,447.927643 
	C957.594849,443.932068 957.594849,440.345276 957.594849,436.101990 
	C944.707092,436.101990 932.103577,436.101990 918.500000,436.101562 
M133.499817,660.578857 
	C145.660263,660.625793 157.820679,660.696655 169.981155,660.714661 
	C194.969238,660.751648 219.957535,660.798523 244.945099,660.693176 
	C246.578094,660.686279 249.240784,659.785583 249.629654,658.673157 
	C250.561005,656.009094 250.421677,652.970764 250.762054,649.615051 
	C248.582993,649.615051 247.108505,649.615601 245.634018,649.614990 
	C212.316376,649.600220 178.998749,649.585083 145.681107,649.570496 
	C126.356941,649.562012 107.032272,649.493469 87.709465,649.650391 
	C85.972809,649.664429 83.299629,650.719482 82.723412,652.024719 
	C81.661674,654.429932 81.835007,657.380310 81.433853,660.580750 
	C98.912331,660.580750 115.706093,660.580750 133.499817,660.578857 
M825.376465,660.268555 
	C869.271118,660.268555 913.165771,660.268555 957.224243,660.268555 
	C957.224243,656.520691 957.224243,653.304260 957.224243,649.830078 
	C955.723145,649.763916 954.591431,649.670837 953.459717,649.670410 
	C913.338501,649.656006 873.217224,649.648804 833.096008,649.644043 
	C819.777893,649.642456 806.458984,649.583801 793.142944,649.752441 
	C791.747925,649.770142 789.531128,650.868835 789.156006,651.965515 
	C788.329041,654.383423 788.434753,657.120361 788.103027,660.266113 
	C800.523193,660.266113 812.465698,660.266113 825.376465,660.268555 
M614.421509,675.925171 
	C616.590210,679.345825 617.442261,676.509521 618.476257,675.027771 
	C622.396667,669.409729 626.273315,663.761169 630.166321,658.124023 
	C630.611145,658.298462 631.055969,658.472900 631.500854,658.647339 
	C631.880310,666.009583 632.259766,673.371887 632.663147,681.196960 
	C636.949707,681.196960 641.164734,681.196960 644.724182,681.196960 
	C644.303406,665.108276 641.010376,649.131958 644.238037,632.690552 
	C642.628235,632.690552 640.421997,633.052124 638.386902,632.615723 
	C634.072571,631.690430 631.949280,633.331543 629.932861,637.211426 
	C626.394043,644.020691 621.993958,650.382324 617.726318,657.301636 
	C613.729065,650.677063 609.945923,644.792542 606.557922,638.688660 
	C602.845764,632.000732 602.887939,631.855164 595.782104,632.920654 
	C594.941040,648.940735 594.108398,664.799988 593.262329,680.914673 
	C596.251221,680.914673 599.481445,680.914673 603.286743,680.914673 
	C603.286743,674.276428 603.286743,667.890869 603.286743,661.505310 
	C603.725769,661.363037 604.164734,661.220703 604.603760,661.078430 
	C607.748718,665.836914 610.893677,670.595398 614.421509,675.925171 
M722.599731,639.738342 
	C722.599731,653.497742 722.599731,667.257141 722.599731,681.332642 
	C726.557739,681.332642 730.956360,681.332642 734.825256,681.332642 
	C734.825256,675.873840 734.676086,670.601135 734.941406,665.349365 
	C734.999756,664.192810 736.472229,662.201904 737.389771,662.144897 
	C742.465332,661.829712 747.570679,661.994019 752.781738,661.994019 
	C752.781738,668.746216 752.781738,674.682556 752.781738,681.002075 
	C756.919800,681.002075 760.983765,681.002075 764.791626,681.002075 
	C764.791626,664.968811 764.791626,648.995850 764.791626,633.159058 
	C760.602478,633.159058 756.522461,633.159058 752.617676,633.159058 
	C752.617676,638.935608 752.617676,644.362244 752.617676,650.202271 
	C746.680786,650.202271 740.854004,650.202271 734.930054,650.202271 
	C734.930054,644.163147 734.930054,638.612427 734.930054,633.176758 
	C730.222595,633.176758 725.812927,633.176758 721.327576,633.176758 
	C721.803040,635.309631 722.192322,637.055847 722.599731,639.738342 
M665.923279,655.024231 
	C665.923279,663.712646 665.923279,672.401062 665.923279,681.387512 
	C670.651123,681.387512 676.282471,681.399536 681.913696,681.381104 
	C683.909912,681.374573 685.911865,681.376465 687.900879,681.231995 
	C694.780151,680.732117 702.596985,675.589722 703.905212,670.233765 
	C705.645264,663.109619 701.257385,659.104492 695.808228,655.848022 
	C695.689331,655.776978 695.642456,655.585510 695.422180,655.214844 
	C696.376221,654.201843 697.441284,653.182251 698.379395,652.056885 
	C704.377747,644.861267 699.659729,634.701172 688.884216,633.386292 
	C680.593872,632.374695 672.081360,633.184692 664.842834,633.184692 
	C665.200500,640.177612 665.557495,647.157288 665.923279,655.024231 
M566.915161,643.393677 
	C568.603027,641.623962 570.290894,639.854309 572.008423,638.053528 
	C556.267578,625.849548 534.118591,632.237305 528.921143,650.074768 
	C525.882202,660.504333 531.403137,672.446167 541.816895,679.565979 
	C552.434387,686.825073 563.621399,682.443298 572.012329,676.786316 
	C573.125366,676.036011 573.871582,674.014526 573.926453,672.549561 
	C574.142639,666.775024 574.015076,660.987671 574.015076,654.417358 
	C567.228210,654.417358 559.720886,654.417358 551.947632,654.417358 
	C551.947632,657.226685 551.947632,660.399109 551.947632,663.647644 
	C562.717163,661.378540 563.974854,662.213501 561.608154,669.969116 
	C558.047668,670.160645 554.405640,670.561584 550.770996,670.503235 
	C545.534302,670.419312 541.137451,667.109375 540.146240,662.252319 
	C538.894897,656.120789 539.666870,650.335876 544.341736,645.551392 
	C548.996582,640.787476 555.744690,639.958252 560.992432,644.082153 
	C563.175110,645.797424 564.670105,645.972839 566.915161,643.393677 
M442.688873,641.208374 
	C442.004883,642.151123 441.279144,643.066650 440.643433,644.040894 
	C434.186646,653.935425 435.284943,665.386841 443.527649,674.281372 
	C450.895294,682.231689 463.768280,684.700195 472.856842,679.905518 
	C484.163513,673.940552 490.120300,662.426636 487.161011,651.389893 
	C484.728790,642.318848 479.327118,635.451843 469.946503,632.960205 
	C459.658875,630.227661 450.482544,632.518921 442.688873,641.208374 
M345.908264,669.894958 
	C344.792480,667.470154 342.808502,665.078674 342.713928,662.614685 
	C342.340851,652.893555 342.560913,643.149719 342.560913,633.172363 
	C339.352875,633.172363 335.281372,633.172363 330.993347,633.172363 
	C330.993347,643.333252 330.884735,653.262207 331.022644,663.187744 
	C331.172791,673.992188 339.873138,682.439270 350.964264,682.806274 
	C361.247040,683.146423 372.707825,673.373718 372.997894,663.547791 
	C373.295166,653.478271 373.063782,643.393188 373.063782,633.026672 
	C369.147614,633.026672 365.073761,633.026672 362.052612,633.026672 
	C362.052612,643.785339 362.361359,654.401428 361.794739,664.970642 
	C361.679993,667.110107 358.580505,670.153992 356.277344,670.842896 
	C353.381348,671.709106 349.888977,670.581421 345.908264,669.894958 
M281.456604,647.790710 
	C276.758575,658.752197 272.060547,669.713684 267.145294,681.181946 
	C271.805878,681.181946 275.831543,681.181946 279.829834,681.181946 
	C281.095428,672.581360 281.334686,672.357788 289.670227,672.237732 
	C292.500488,672.196960 295.359314,672.468689 298.155365,672.154724 
	C301.563721,671.772095 303.058105,673.602417 303.926025,676.364197 
	C304.409576,677.902710 304.618561,679.527527 304.993469,681.314697 
	C309.334900,681.314697 313.562744,681.314697 318.063812,681.314697 
	C316.374512,678.149170 314.674988,675.358765 313.344452,672.402222 
	C307.880402,660.260864 302.645416,648.014221 296.996124,635.960938 
	C296.241119,634.350037 293.642365,632.832581 291.816315,632.731140 
	C290.274811,632.645508 288.026642,634.327881 287.126678,635.842834 
	C285.013397,639.400391 283.519836,643.326050 281.456604,647.790710 
M400.689819,673.407166 
	C400.689819,675.871399 400.689819,678.335632 400.689819,681.183960 
	C404.745605,681.183960 408.815247,681.183960 412.528809,681.183960 
	C412.251251,669.882874 412.101990,658.624146 411.625397,647.379272 
	C411.471130,643.738525 412.718231,642.658325 416.175934,642.976013 
	C419.104980,643.245056 422.078339,643.031494 425.457184,643.031494 
	C425.221924,639.262634 425.011597,635.893005 424.802551,632.543701 
	C412.053375,632.543701 399.800110,632.543701 387.140869,632.543701 
	C387.140869,636.606873 387.140869,640.324036 387.140869,643.771484 
	C391.744537,643.392212 396.255981,643.020569 400.738251,642.651367 
	C400.738251,653.165039 400.738251,662.802246 400.689819,673.407166 
z"/>
<path fill="#F6F6F5" opacity="1.000000" stroke="none" 
	d="
M605.895325,245.356689 
	C626.822876,248.706909 645.462158,256.147888 661.167053,270.078613 
	C671.498108,279.242615 681.595581,288.683777 692.215332,297.497559 
	C694.554382,299.438812 698.659851,299.251709 701.951904,300.044678 
	C702.276855,299.517578 702.601807,298.990509 702.926819,298.463409 
	C702.059753,296.810364 701.163452,295.171906 700.331177,293.501495 
	C697.722900,288.266479 698.255493,284.533325 703.084900,281.350098 
	C706.318787,279.218567 710.371643,276.741425 713.905273,276.954498 
	C723.963684,277.560944 734.003296,279.146637 743.929688,280.994690 
	C748.915894,281.923065 752.755493,285.218781 753.166382,290.847504 
	C753.570312,296.381256 750.362122,299.864349 745.764648,302.262390 
	C740.469360,305.024414 735.132629,307.707031 729.127686,310.774689 
	C730.279358,312.341614 731.356140,313.887451 732.514526,315.369476 
	C740.423035,325.487732 742.918396,337.178436 742.255676,349.684357 
	C740.871826,375.798767 739.379761,401.907623 737.871216,428.015198 
	C737.410217,435.994598 737.044128,443.997040 736.112366,451.927582 
	C734.735718,463.644745 728.173218,469.298309 716.391602,469.429901 
	C702.565613,469.584351 688.738770,469.675751 674.912048,469.728638 
	C671.282043,469.742523 667.665771,469.919220 665.416809,465.852692 
	C664.702698,464.561554 662.369507,463.739563 660.663269,463.493622 
	C650.635071,462.048065 640.583679,459.832214 630.520752,459.726990 
	C594.877991,459.354187 559.226257,459.599579 523.580139,459.884460 
	C509.097656,460.000214 494.621674,461.183563 480.141113,461.218597 
	C464.491791,461.256439 448.841675,460.266479 433.189880,460.200256 
	C420.217102,460.145355 407.215302,460.397888 394.278534,461.279785 
	C388.195984,461.694427 381.455902,462.155182 377.849243,468.872620 
	C377.424561,469.663635 375.499451,469.983063 374.279205,469.962677 
	C356.795868,469.670471 339.302002,469.561707 321.836853,468.805176 
	C312.389038,468.395996 306.418793,461.929901 305.996490,452.688080 
	C304.422546,418.245758 302.921661,383.799896 301.501923,349.350861 
	C301.121979,340.131470 301.573364,330.896118 306.183441,322.603546 
	C308.475067,318.481354 311.660400,314.855957 314.595428,310.792603 
	C310.217407,309.055237 305.956573,307.680481 302.001617,305.696014 
	C298.768829,304.073914 295.602783,302.053101 292.932098,299.630402 
	C286.988861,294.238983 287.984070,286.069061 295.174316,282.766754 
	C307.437012,277.134888 320.618256,275.927032 333.813477,277.249847 
	C343.032501,278.174042 345.924347,284.830841 341.755005,292.939392 
	C340.933319,294.537476 340.145691,296.153076 339.196411,298.052582 
	C344.039307,300.442230 347.939056,300.957855 352.170197,297.194672 
	C361.251495,289.117737 370.688751,281.441803 379.955444,273.572418 
	C399.912628,256.624603 422.435181,246.179504 448.914459,243.784470 
	C498.006500,239.344101 547.021423,238.143524 596.064880,243.965927 
	C599.207581,244.339020 602.334717,244.842545 605.895325,245.356689 
M638.409607,349.923950 
	C630.179138,356.424591 622.171753,363.242615 613.604858,369.264557 
	C610.329285,371.567017 605.840942,372.536713 601.765198,373.099915 
	C600.299133,373.302460 597.548584,370.793091 597.016479,369.028992 
	C596.611328,367.686310 598.378052,365.037506 599.880066,363.880310 
	C607.390198,358.094330 615.160217,352.647247 622.785889,347.009430 
	C637.521729,336.114990 652.231567,325.185272 666.924683,314.233368 
	C668.702759,312.907990 670.311768,311.355743 671.999146,309.908661 
	C671.759888,309.431641 671.520630,308.954620 671.281372,308.477600 
	C664.204590,310.546997 657.117615,312.583069 650.067200,314.738647 
	C649.384033,314.947510 648.980164,315.958191 648.356201,316.490601 
	C644.099731,320.122406 640.105652,324.154144 635.484436,327.246155 
	C626.772461,333.075287 617.775696,338.494659 608.750793,343.836792 
	C593.665283,352.766449 578.289062,361.577576 560.302490,362.358124 
	C538.690857,363.296021 517.029419,363.258820 495.388977,363.297791 
	C482.110291,363.321686 468.715424,361.933929 457.201904,354.973694 
	C437.122986,342.835388 417.845520,329.372986 397.791626,317.190765 
	C390.534302,312.782104 382.012756,310.454529 374.068085,307.177338 
	C373.694275,307.817261 373.320465,308.457184 372.946655,309.097076 
	C374.252960,310.093964 375.554291,311.097504 376.866394,312.086731 
	C388.969940,321.211945 401.004761,330.430298 413.200348,339.430847 
	C425.098145,348.211731 438.251831,355.461731 447.356720,367.581879 
	C448.401001,368.972015 449.451660,372.116791 448.875580,372.631805 
	C447.209686,374.121216 444.620087,375.589478 442.570068,375.374939 
	C440.140747,375.120728 437.701630,373.364136 435.604340,371.804657 
	C425.582367,364.352875 415.805145,356.567444 405.695892,349.238617 
	C390.597748,338.293030 375.744659,326.910492 359.958801,317.038727 
	C342.185577,305.924042 320.075775,316.207245 316.543640,336.702240 
	C315.375397,343.480804 316.214752,350.627258 316.351501,357.601318 
	C316.447571,362.500916 316.907990,367.393341 317.092712,370.431061 
	C323.340729,372.252319 328.334869,373.449371 333.135468,375.182465 
	C337.644653,376.810364 341.787842,379.647034 346.381195,380.801941 
	C353.626923,382.623718 361.094910,383.613770 368.503113,384.728027 
	C405.382172,390.274902 441.943207,397.814331 479.364990,399.821442 
	C514.562256,401.709229 549.691101,402.493713 584.676025,398.049225 
	C620.534363,393.493774 656.266113,387.939301 692.047607,382.782959 
	C700.232056,381.603546 707.836487,378.975647 714.666321,374.067474 
	C717.708435,371.881317 721.411438,370.635986 724.660767,368.705078 
	C725.766846,368.047760 727.009277,366.676025 727.159363,365.499359 
	C728.727417,353.208771 729.805054,340.874176 724.482117,329.121887 
	C720.425598,320.165680 713.740479,314.463959 703.640625,313.299194 
	C694.784912,312.277924 686.582031,314.329926 679.469910,319.427765 
	C665.807922,329.220367 652.450867,339.438385 638.409607,349.923950 
M465.523102,255.928589 
	C464.692261,255.988678 463.862274,256.083191 463.030457,256.103943 
	C431.759369,256.884125 404.085052,266.128784 382.604706,290.108490 
	C380.831970,292.087494 378.591309,293.647369 375.587677,296.252197 
	C380.461548,296.722931 383.889343,297.069092 387.320099,297.382843 
	C407.885864,299.263794 428.432465,302.442139 449.022369,302.754242 
	C499.156708,303.514221 549.322998,303.564423 599.452026,302.611816 
	C620.346436,302.214722 641.180542,298.559753 662.035278,296.322449 
	C663.693176,296.144592 665.297485,295.467377 667.862549,294.766479 
	C665.875183,292.878632 664.803528,291.640717 663.523804,290.679901 
	C653.800232,283.379150 644.333740,275.676300 634.170044,269.044403 
	C628.298828,265.213379 621.525085,261.681061 614.735046,260.549561 
	C595.700684,257.377716 576.502319,254.814697 557.267029,253.311157 
	C526.962280,250.942413 496.668915,252.791504 465.523102,255.928589 
M444.170227,334.361755 
	C450.198975,337.568512 456.336670,340.588348 462.231903,344.024200 
	C471.954193,349.690521 482.479370,352.879333 493.577087,353.245544 
	C510.703522,353.810699 527.855774,353.667572 544.997131,353.681915 
	C558.544067,353.693237 571.414917,350.969788 583.354126,344.178528 
	C596.236084,336.850952 609.318604,329.876678 622.270386,322.670593 
	C627.850281,319.566040 633.321533,316.266113 638.842102,313.054932 
	C563.079346,319.803772 487.494659,318.337555 411.891418,312.942017 
	C411.660217,313.598999 411.429016,314.256012 411.197784,314.912994 
	C421.972107,321.281891 432.746429,327.650787 444.170227,334.361755 
M573.350708,418.737366 
	C582.423340,419.446869 592.087769,418.425964 600.427490,421.278412 
	C612.424866,425.381897 623.740784,431.807434 634.842896,438.128235 
	C656.266907,450.325562 678.375610,456.140503 702.807373,448.704834 
	C713.267578,445.521332 722.273193,436.568390 723.278625,427.041718 
	C724.362183,416.774536 725.222900,406.483276 726.121948,396.197388 
	C726.673584,389.885223 727.114807,383.563416 727.605652,377.245941 
	C721.586731,386.154083 712.292542,389.478668 703.188354,393.090454 
	C703.033447,393.151917 702.880859,393.222107 702.721436,393.268524 
	C699.220520,394.288788 699.030151,395.925293 700.773438,399.133026 
	C704.898743,406.724121 708.029358,414.880188 712.440002,422.284912 
	C716.852844,429.693359 714.030457,435.918884 705.631775,439.350220 
	C690.270508,445.626190 674.212341,447.986603 658.402405,441.517334 
	C645.490967,436.234070 632.850403,430.090118 620.650269,423.317871 
	C605.640747,414.986145 590.186829,410.714630 572.858704,412.049072 
	C554.273743,413.480316 535.593689,414.289368 516.957031,414.257568 
	C499.318359,414.227478 481.678070,412.831604 464.046326,411.889648 
	C452.610474,411.278687 441.917603,413.476440 431.789642,418.951324 
	C420.510010,425.048706 408.887573,430.521057 397.696289,436.770386 
	C384.169617,444.323883 369.743805,446.294159 354.683441,444.672363 
	C346.450134,443.785736 338.748505,441.153778 332.609924,435.149261 
	C329.507111,432.114166 328.450500,428.644531 330.904053,424.822296 
	C336.374542,416.300262 341.996185,407.875214 347.557892,399.411743 
	C348.158508,398.497772 348.769592,397.590668 349.612183,396.325470 
	C338.255615,390.782043 325.406891,388.497223 317.413025,376.039581 
	C317.226715,379.145630 316.980225,380.604767 317.077423,382.040649 
	C318.146454,397.827148 319.281097,413.609192 320.370911,429.394318 
	C320.783844,435.375183 324.031799,439.866791 328.622589,443.056641 
	C332.528534,445.770599 336.939758,448.185425 341.484253,449.478699 
	C361.862244,455.277863 381.583710,453.854126 400.485565,443.493347 
	C412.746887,436.772461 425.442352,430.845490 437.732178,424.173859 
	C447.641022,418.794800 458.109833,416.866699 469.114990,418.111725 
	C503.531738,422.005432 537.955811,421.613586 573.350708,418.737366 
M576.539978,443.072388 
	C588.065613,443.072388 599.591309,443.072388 611.116943,443.072388 
	C611.278137,442.697296 611.439270,442.322235 611.600464,441.947144 
	C609.785767,440.750122 608.094910,438.812134 606.134766,438.484436 
	C597.670776,437.069305 589.153442,435.789215 580.603821,435.143036 
	C575.850708,434.783783 571.000427,436.019684 566.186523,436.101868 
	C546.537537,436.437531 526.883789,436.884888 507.235687,436.744843 
	C492.096252,436.636993 476.957764,435.817474 461.828461,435.109467 
	C454.008514,434.743500 446.511841,435.795471 439.506348,439.283844 
	C437.368561,440.348328 435.639984,442.234619 433.498932,443.921875 
	C481.451508,443.639496 528.503784,443.362396 576.539978,443.072388 
M690.974243,402.707916 
	C689.019592,397.554993 685.025879,396.507294 680.096558,397.257904 
	C660.827454,400.192200 641.553406,403.094757 622.291016,406.072632 
	C621.231201,406.236450 620.259949,406.973389 618.324768,407.872040 
	C623.270386,409.434998 627.196106,410.199310 630.690979,411.866669 
	C642.684937,417.588715 654.274841,424.232513 666.510681,429.348236 
	C675.834229,433.246338 685.858398,431.930573 695.407654,428.817078 
	C696.564636,428.439850 697.215149,426.509338 698.100464,425.298737 
	C696.913269,424.921082 695.492981,423.916595 694.573303,424.258484 
	C676.682068,430.910278 660.940979,424.339355 645.437439,416.402649 
	C642.297729,414.795380 639.374207,412.765747 635.353943,410.325653 
	C639.059509,409.346039 641.424011,408.385559 643.862183,408.130920 
	C659.496399,406.497925 674.628174,399.747650 690.974243,402.707916 
M360.286041,397.194824 
	C355.871429,398.919983 357.955322,401.955963 358.195038,403.565094 
	C362.662201,403.158478 366.709991,402.185272 370.620209,402.578735 
	C376.206329,403.140869 381.666107,404.853149 387.225708,405.806702 
	C398.006378,407.655731 408.806305,409.406128 419.631195,410.969269 
	C421.374542,411.221008 423.288147,410.293884 425.123077,409.911713 
	C425.099579,409.340668 425.076080,408.769623 425.052582,408.198608 
	C423.724518,407.752594 422.427002,407.139252 421.062988,406.890533 
	C416.001007,405.967377 410.920685,405.142639 405.840851,404.320221 
	C390.930847,401.906342 376.017792,399.511322 360.286041,397.194824 
M380.757599,429.347565 
	C388.020874,426.632782 395.128510,423.641388 400.887817,417.605347 
	C383.010803,424.346802 365.301910,431.580048 346.205750,421.636871 
	C345.042267,423.107697 343.978241,424.452759 342.923798,425.785736 
	C349.253387,430.999878 367.208771,432.695679 380.757599,429.347565 
M316.171204,290.656158 
	C312.498322,291.304657 308.825470,291.953156 305.152588,292.601624 
	C305.150787,293.124817 305.148987,293.648010 305.147186,294.171204 
	C311.919403,295.567413 318.656586,297.182709 325.477753,298.272217 
	C329.181671,298.863861 328.978058,295.726135 329.184326,293.193207 
	C329.415100,290.359406 328.003815,289.764221 325.540558,290.008789 
	C322.725281,290.288330 319.889374,290.359924 316.171204,290.656158 
M736.563354,293.804810 
	C735.943909,293.092499 735.391052,291.840057 734.694397,291.754211 
	C729.608337,291.127441 724.499451,290.622375 719.383362,290.348389 
	C718.117615,290.280609 715.798950,291.044159 715.694824,291.700195 
	C715.400818,293.552063 715.653381,295.709747 716.436707,297.401489 
	C716.733948,298.043335 719.145386,298.093872 720.461609,297.807922 
	C725.636780,296.683777 730.759521,295.318298 736.563354,293.804810 
z"/>
<path fill="#F7F7F7" opacity="1.000000" stroke="none" 
	d="
M87.876160,575.457275 
	C89.450348,556.745422 90.973907,538.488464 92.513344,520.232788 
	C93.200226,512.087219 93.334427,504.131531 84.778770,498.952728 
	C85.047516,498.580109 85.316269,498.207520 85.585022,497.834900 
	C90.818077,497.834900 96.064697,497.629639 101.275024,497.973724 
	C102.643372,498.064117 104.397209,499.581696 105.130890,500.909698 
	C113.826973,516.649902 122.337448,532.492432 130.954666,548.276428 
	C134.125397,554.084229 137.449036,559.808594 141.150681,566.363953 
	C143.081833,562.882202 144.683151,559.909668 146.362183,556.981750 
	C156.544998,539.225098 166.790527,521.504272 176.912003,503.712769 
	C179.840363,498.565369 183.733704,496.069183 189.870026,497.023712 
	C193.179276,497.538483 196.634415,497.115295 200.484711,497.891327 
	C192.319016,502.124939 192.835815,509.116577 193.248795,516.068176 
	C194.542496,537.845398 195.775269,559.626526 197.165710,581.397644 
	C197.627945,588.635071 197.586273,596.173889 205.759964,601.274475 
	C193.755356,601.274475 183.245514,601.274475 171.362198,601.274475 
	C178.644547,595.183289 178.160645,587.872620 177.785843,580.753296 
	C177.191895,569.472107 176.241196,558.209656 175.441422,546.939270 
	C174.914642,546.770325 174.387863,546.601318 173.861084,546.432373 
	C162.330002,565.787720 150.798935,585.143005 138.981247,604.979431 
	C128.814682,586.299072 118.790054,567.879456 108.765427,549.459900 
	C108.373459,549.576843 107.981499,549.693787 107.589539,549.810730 
	C106.510254,563.651733 105.038544,577.481140 104.631134,591.341919 
	C104.530884,594.752441 107.899757,598.264954 109.715935,601.812866 
	C100.024651,601.812866 89.848846,601.812866 78.706650,601.812866 
	C86.792313,594.574463 86.525467,584.995789 87.876160,575.457275 
z"/>
<path fill="#F8F8F7" opacity="1.000000" stroke="none" 
	d="
M348.036987,541.000000 
	C348.087433,531.673523 347.764587,522.823669 348.318298,514.028992 
	C348.683441,508.229858 346.876434,504.039124 342.331573,500.742584 
	C341.430634,500.089111 340.656769,499.260468 339.222504,497.971924 
	C359.257324,497.971924 378.560211,497.090851 397.741211,498.241272 
	C414.078857,499.221222 423.329742,510.033813 426.136047,526.301758 
	C428.581085,540.475464 418.088501,556.107605 406.609833,560.743286 
	C406.331177,560.855774 406.143494,561.193420 405.538788,561.805054 
	C414.157257,577.418945 425.101715,591.086487 440.363220,601.390198 
	C433.225067,601.390198 426.152069,600.871704 419.190948,601.532410 
	C411.866882,602.227539 407.281372,599.714539 403.340607,593.492981 
	C397.656189,584.518555 390.983521,576.167358 384.649567,567.611694 
	C384.038879,566.786804 382.863251,565.921021 381.916748,565.882202 
	C377.482117,565.700317 373.035858,565.801392 368.153290,565.801392 
	C368.153290,574.842896 367.604401,583.675903 368.434998,592.377258 
	C368.748474,595.661377 372.252228,598.640991 374.353394,601.838013 
	C364.020874,601.838013 353.304993,601.838013 342.621765,601.838013 
	C342.489532,601.392212 342.232605,600.898315 342.332733,600.810242 
	C347.489990,596.273499 347.933777,590.310669 347.882233,583.971619 
	C347.767212,569.815796 347.965454,555.657349 348.036987,541.000000 
M405.695801,533.192871 
	C405.850830,524.809448 403.153931,518.590149 396.987152,517.623230 
	C387.644897,516.158447 378.055695,516.268494 368.528320,515.706970 
	C368.528320,526.970093 368.528320,536.874207 368.528320,547.543884 
	C375.926422,547.543884 383.023224,547.666382 390.114258,547.515381 
	C400.867188,547.286316 403.843506,544.604736 405.695801,533.192871 
z"/>
<path fill="#F8F8F7" opacity="1.000000" stroke="none" 
	d="
M881.836060,505.905884 
	C912.337830,487.906647 947.972595,498.626221 961.075439,529.463257 
	C969.648438,549.639465 964.208252,573.884338 947.617065,589.442505 
	C931.364990,604.682678 907.846436,608.026794 887.784668,597.949829 
	C858.492493,583.236450 848.636658,546.055420 867.386353,519.226929 
	C870.988647,514.072327 876.756226,510.431000 881.836060,505.905884 
M943.563782,541.406799 
	C936.443726,517.092590 910.780762,507.668030 890.985779,522.097961 
	C880.629333,529.647461 875.881348,545.788879 880.046265,560.673340 
	C883.836670,574.219299 893.281311,582.251587 906.812988,584.548035 
	C919.505188,586.701965 929.867126,582.035400 937.475952,571.229126 
	C943.731873,562.344177 945.273560,552.700989 943.563782,541.406799 
z"/>
<path fill="#F5F5F5" opacity="1.000000" stroke="none" 
	d="
M580.060364,601.583130 
	C575.812744,601.602295 572.053040,601.602295 567.414246,601.602295 
	C574.983765,595.666992 573.979675,587.602783 574.119629,579.890259 
	C574.524902,557.570679 574.674561,535.244385 575.330444,512.932678 
	C575.533569,506.021484 572.552734,501.584930 567.181458,498.090881 
	C566.509583,497.653839 565.912231,497.102203 565.494934,496.772949 
	C592.809326,496.772949 620.192871,496.772949 646.982056,496.772949 
	C646.982056,506.713776 646.982056,515.359863 646.982056,523.979614 
	C646.585571,524.059692 646.103149,524.244202 646.046753,524.156128 
	C641.549500,517.127441 634.541748,516.552063 627.185608,516.657410 
	C617.523682,516.795715 607.857605,516.707581 598.199280,516.954041 
	C597.044128,516.983582 594.975891,518.458923 594.942322,519.326538 
	C594.673157,526.274353 594.791931,533.237061 594.791931,540.679565 
	C602.078125,540.679565 608.720581,541.070496 615.294617,540.567322 
	C621.603882,540.084473 628.674988,542.557190 634.364746,535.145813 
	C634.364746,545.767029 634.364746,554.843323 634.364746,563.919556 
	C629.992493,557.090820 623.409607,558.911194 617.452820,558.854797 
	C609.978333,558.784058 602.502625,558.837830 594.613403,558.837830 
	C594.613403,567.401794 594.613403,575.461548 594.613403,584.275085 
	C600.197815,584.275085 605.807922,584.317749 611.417114,584.264221 
	C618.246826,584.199036 625.075806,583.967285 631.905151,583.963440 
	C640.423950,583.958679 647.005798,580.691589 651.213806,573.053528 
	C649.915283,582.437317 648.616760,591.821045 647.268616,601.563904 
	C625.077942,601.563904 602.813171,601.563904 580.060364,601.583130 
z"/>
<path fill="#F7F7F7" opacity="1.000000" stroke="none" 
	d="
M243.546738,601.857788 
	C234.648651,601.816040 226.199753,601.816040 218.517670,601.816040 
	C235.590057,564.485779 252.793839,526.868225 269.997589,489.250671 
	C270.549194,489.316986 271.100800,489.383270 271.652374,489.449585 
	C288.994263,526.761963 306.336151,564.074341 323.707916,601.451050 
	C314.250031,601.451050 303.964355,601.451050 293.620911,601.451050 
	C293.602600,601.361084 293.375977,600.939392 293.500183,600.758118 
	C297.831604,594.435669 297.164856,585.902222 291.615662,580.257263 
	C290.748718,579.375305 288.956909,579.063660 287.592346,579.062622 
	C275.440704,579.053589 263.288574,579.256653 251.137543,579.196960 
	C248.130325,579.182190 246.405823,580.216980 245.738220,583.103760 
	C245.626938,583.585022 245.385223,584.036316 245.201950,584.500732 
	C241.464294,593.971985 241.464249,593.971985 246.993744,601.899597 
	C245.816849,601.899597 244.906372,601.899597 243.546738,601.857788 
M261.219879,547.657776 
	C259.387085,551.985107 257.554291,556.312439 255.594376,560.939880 
	C264.715363,560.939880 272.882782,560.939880 281.568848,560.939880 
	C276.979065,551.220154 272.662872,542.079773 268.012238,532.231140 
	C265.550690,537.828796 263.542114,542.396423 261.219879,547.657776 
z"/>
<path fill="#F7F7F7" opacity="1.000000" stroke="none" 
	d="
M452.444885,549.190002 
	C454.834808,529.340210 461.440399,512.437500 480.148987,503.023560 
	C499.439423,493.316772 518.689331,494.057495 537.745850,503.880707 
	C539.374329,504.720123 540.931091,505.737427 542.629333,506.391449 
	C544.306396,507.037262 546.120667,507.326935 549.008301,508.061005 
	C543.241028,513.934448 539.264771,520.331604 539.801514,529.784790 
	C537.528442,528.008484 536.160339,527.030151 534.893188,525.934937 
	C523.881897,516.417358 510.960724,513.677917 497.027771,516.174072 
	C485.844147,518.177612 479.087830,526.142334 474.979523,536.083984 
	C469.647644,548.986633 473.964203,566.647705 484.097626,576.263306 
	C493.651794,585.329224 511.223511,587.993774 523.907776,581.960144 
	C529.415894,579.340027 534.601440,576.041992 540.441162,572.767212 
	C542.669922,577.463867 545.058105,582.496460 547.419312,587.472229 
	C534.235229,601.824585 506.495667,607.476685 486.895508,599.915344 
	C463.921478,591.052429 452.526062,574.432190 452.444885,549.190002 
z"/>
<path fill="#F6F6F6" opacity="1.000000" stroke="none" 
	d="
M679.134644,584.687134 
	C679.444458,559.910828 679.578003,535.597778 680.143799,511.294800 
	C680.306213,504.316193 675.249512,501.659943 670.316956,497.472260 
	C683.304688,497.472260 695.436279,497.472260 707.581543,497.472260 
	C707.629395,497.811371 707.799133,498.336121 707.698059,498.394775 
	C700.857483,502.366913 699.930176,508.510040 700.032043,515.875244 
	C700.319702,536.680115 699.892883,557.494873 699.750305,578.305725 
	C699.739197,579.925110 699.748840,581.544556 699.748840,584.470947 
	C713.603943,583.663330 726.838989,583.116516 740.014343,581.915955 
	C742.377075,581.700745 744.608521,578.915344 746.684875,577.073425 
	C748.129639,575.791748 749.205505,574.094299 750.446289,572.582642 
	C750.871155,572.840698 751.296021,573.098816 751.720886,573.356873 
	C750.519226,582.563721 749.317566,591.770569 748.036682,601.584717 
	C723.388672,601.584717 698.356812,601.584717 671.813416,601.584717 
	C678.190491,597.305298 678.839050,591.293152 679.134644,584.687134 
z"/>
<path fill="#F5F5F5" opacity="1.000000" stroke="none" 
	d="
M795.393677,579.091187 
	C795.135315,582.342346 795.723267,583.864563 799.134521,583.758667 
	C806.788513,583.521118 814.457092,583.738831 822.119629,583.792725 
	C832.167542,583.863403 841.574036,582.497192 847.817566,572.782593 
	C846.308472,582.082764 844.799438,591.382996 843.149658,601.550415 
	C818.769958,601.550415 793.969299,601.550415 768.706238,601.550415 
	C775.408936,596.770569 774.825012,589.554504 774.899475,582.668030 
	C775.137085,560.681641 775.007141,538.689331 775.445618,516.707886 
	C775.603027,508.818146 774.555298,502.113007 766.570557,497.931274 
	C778.927063,497.931274 791.283630,497.931274 803.651062,497.931274 
	C803.663086,498.037415 803.742554,498.297363 803.689148,498.328369 
	C795.440735,503.112640 795.411865,510.784119 795.547668,519.117310 
	C795.870544,538.931580 795.490295,558.757324 795.393677,579.091187 
z"/>
<path fill="#ECEBEB" opacity="1.000000" stroke="none" 
	d="
M231.000092,436.309021 
	C252.928696,436.309540 274.357300,436.309540 296.029755,436.309540 
	C296.029755,440.621918 296.029755,444.360596 296.029755,448.378113 
	C224.583939,448.378113 153.410751,448.378113 81.675377,448.378113 
	C82.124252,444.302826 82.533463,440.587616 83.004784,436.308533 
	C132.355209,436.308533 181.427643,436.308533 231.000092,436.309021 
z"/>
<path fill="#F3F3F3" opacity="1.000000" stroke="none" 
	d="
M919.000000,436.101776 
	C932.103577,436.101990 944.707092,436.101990 957.594849,436.101990 
	C957.594849,440.345276 957.594849,443.932068 957.594849,447.927643 
	C887.658264,447.927643 817.843445,447.927643 747.615967,447.927643 
	C747.615967,444.212524 747.615967,440.524292 747.615967,436.101562 
	C804.755310,436.101562 861.627625,436.101562 919.000000,436.101776 
z"/>
<path fill="#F4F4F4" opacity="1.000000" stroke="none" 
	d="
M132.999832,660.579834 
	C115.706093,660.580750 98.912331,660.580750 81.433853,660.580750 
	C81.835007,657.380310 81.661674,654.429932 82.723412,652.024719 
	C83.299629,650.719482 85.972809,649.664429 87.709465,649.650391 
	C107.032272,649.493469 126.356941,649.562012 145.681107,649.570496 
	C178.998749,649.585083 212.316376,649.600220 245.634018,649.614990 
	C247.108505,649.615601 248.582993,649.615051 250.762054,649.615051 
	C250.421677,652.970764 250.561005,656.009094 249.629654,658.673157 
	C249.240784,659.785583 246.578094,660.686279 244.945099,660.693176 
	C219.957535,660.798523 194.969238,660.751648 169.981155,660.714661 
	C157.820679,660.696655 145.660263,660.625793 132.999832,660.579834 
z"/>
<path fill="#F9F9F8" opacity="1.000000" stroke="none" 
	d="
M824.892334,660.267334 
	C812.465698,660.266113 800.523193,660.266113 788.103027,660.266113 
	C788.434753,657.120361 788.329041,654.383423 789.156006,651.965515 
	C789.531128,650.868835 791.747925,649.770142 793.142944,649.752441 
	C806.458984,649.583801 819.777893,649.642456 833.096008,649.644043 
	C873.217224,649.648804 913.338501,649.656006 953.459717,649.670410 
	C954.591431,649.670837 955.723145,649.763916 957.224243,649.830078 
	C957.224243,653.304260 957.224243,656.520691 957.224243,660.268555 
	C913.165771,660.268555 869.271118,660.268555 824.892334,660.267334 
z"/>
<path fill="#F2F2F2" opacity="1.000000" stroke="none" 
	d="
M614.230042,675.639526 
	C610.893677,670.595398 607.748718,665.836914 604.603760,661.078430 
	C604.164734,661.220703 603.725769,661.363037 603.286743,661.505310 
	C603.286743,667.890869 603.286743,674.276428 603.286743,680.914673 
	C599.481445,680.914673 596.251221,680.914673 593.262329,680.914673 
	C594.108398,664.799988 594.941040,648.940735 595.782104,632.920654 
	C602.887939,631.855164 602.845764,632.000732 606.557922,638.688660 
	C609.945923,644.792542 613.729065,650.677063 617.726318,657.301636 
	C621.993958,650.382324 626.394043,644.020691 629.932861,637.211426 
	C631.949280,633.331543 634.072571,631.690430 638.386902,632.615723 
	C640.421997,633.052124 642.628235,632.690552 644.238037,632.690552 
	C641.010376,649.131958 644.303406,665.108276 644.724182,681.196960 
	C641.164734,681.196960 636.949707,681.196960 632.663147,681.196960 
	C632.259766,673.371887 631.880310,666.009583 631.500854,658.647339 
	C631.055969,658.472900 630.611145,658.298462 630.166321,658.124023 
	C626.273315,663.761169 622.396667,669.409729 618.476257,675.027771 
	C617.442261,676.509521 616.590210,679.345825 614.230042,675.639526 
z"/>
<path fill="#F3F3F3" opacity="1.000000" stroke="none" 
	d="
M722.590698,639.270264 
	C722.192322,637.055847 721.803040,635.309631 721.327576,633.176758 
	C725.812927,633.176758 730.222595,633.176758 734.930054,633.176758 
	C734.930054,638.612427 734.930054,644.163147 734.930054,650.202271 
	C740.854004,650.202271 746.680786,650.202271 752.617676,650.202271 
	C752.617676,644.362244 752.617676,638.935608 752.617676,633.159058 
	C756.522461,633.159058 760.602478,633.159058 764.791626,633.159058 
	C764.791626,648.995850 764.791626,664.968811 764.791626,681.002075 
	C760.983765,681.002075 756.919800,681.002075 752.781738,681.002075 
	C752.781738,674.682556 752.781738,668.746216 752.781738,661.994019 
	C747.570679,661.994019 742.465332,661.829712 737.389771,662.144897 
	C736.472229,662.201904 734.999756,664.192810 734.941406,665.349365 
	C734.676086,670.601135 734.825256,675.873840 734.825256,681.332642 
	C730.956360,681.332642 726.557739,681.332642 722.599731,681.332642 
	C722.599731,667.257141 722.599731,653.497742 722.590698,639.270264 
z"/>
<path fill="#F4F4F4" opacity="1.000000" stroke="none" 
	d="
M665.918945,654.580566 
	C665.557495,647.157288 665.200500,640.177612 664.842834,633.184692 
	C672.081360,633.184692 680.593872,632.374695 688.884216,633.386292 
	C699.659729,634.701172 704.377747,644.861267 698.379395,652.056885 
	C697.441284,653.182251 696.376221,654.201843 695.422180,655.214844 
	C695.642456,655.585510 695.689331,655.776978 695.808228,655.848022 
	C701.257385,659.104492 705.645264,663.109619 703.905212,670.233765 
	C702.596985,675.589722 694.780151,680.732117 687.900879,681.231995 
	C685.911865,681.376465 683.909912,681.374573 681.913696,681.381104 
	C676.282471,681.399536 670.651123,681.387512 665.923279,681.387512 
	C665.923279,672.401062 665.923279,663.712646 665.918945,654.580566 
M684.397095,661.938599 
	C683.570251,661.924194 682.730957,661.996948 681.918640,661.880920 
	C677.385376,661.232971 677.881714,664.319397 677.765320,667.200134 
	C677.640198,670.298462 678.126099,672.478577 682.008667,671.960876 
	C684.133728,671.677551 686.578979,672.257446 688.365295,671.389282 
	C690.293762,670.451965 691.621887,668.279358 693.211853,666.645630 
	C691.570801,665.115723 690.032349,663.445740 688.234863,662.129456 
	C687.577087,661.647705 686.304749,662.005310 684.397095,661.938599 
M681.377441,651.490540 
	C682.698669,651.342346 684.317322,651.620972 685.276306,650.952881 
	C687.010559,649.744507 688.351013,647.970947 689.855957,646.433411 
	C688.109253,644.981934 686.565186,642.879211 684.560974,642.255493 
	C682.399170,641.582886 679.806641,642.294495 677.402039,642.402222 
	C677.141541,642.714172 676.881042,643.026184 676.620544,643.338196 
	C679.434326,645.531860 673.648743,650.880981 681.377441,651.490540 
z"/>
<path fill="#F2F2F2" opacity="1.000000" stroke="none" 
	d="
M566.662964,643.640625 
	C564.670105,645.972839 563.175110,645.797424 560.992432,644.082153 
	C555.744690,639.958252 548.996582,640.787476 544.341736,645.551392 
	C539.666870,650.335876 538.894897,656.120789 540.146240,662.252319 
	C541.137451,667.109375 545.534302,670.419312 550.770996,670.503235 
	C554.405640,670.561584 558.047668,670.160645 561.608154,669.969116 
	C563.974854,662.213501 562.717163,661.378540 551.947632,663.647644 
	C551.947632,660.399109 551.947632,657.226685 551.947632,654.417358 
	C559.720886,654.417358 567.228210,654.417358 574.015076,654.417358 
	C574.015076,660.987671 574.142639,666.775024 573.926453,672.549561 
	C573.871582,674.014526 573.125366,676.036011 572.012329,676.786316 
	C563.621399,682.443298 552.434387,686.825073 541.816895,679.565979 
	C531.403137,672.446167 525.882202,660.504333 528.921143,650.074768 
	C534.118591,632.237305 556.267578,625.849548 572.008423,638.053528 
	C570.290894,639.854309 568.603027,641.623962 566.662964,643.640625 
z"/>
<path fill="#F3F3F3" opacity="1.000000" stroke="none" 
	d="
M442.927673,640.943237 
	C450.482544,632.518921 459.658875,630.227661 469.946503,632.960205 
	C479.327118,635.451843 484.728790,642.318848 487.161011,651.389893 
	C490.120300,662.426636 484.163513,673.940552 472.856842,679.905518 
	C463.768280,684.700195 450.895294,682.231689 443.527649,674.281372 
	C435.284943,665.386841 434.186646,653.935425 440.643433,644.040894 
	C441.279144,643.066650 442.004883,642.151123 442.927673,640.943237 
M476.727417,659.853333 
	C476.756104,658.526733 476.882416,657.193726 476.796875,655.874573 
	C476.393799,649.659546 472.997375,645.236938 467.728607,642.510498 
	C463.462891,640.303101 457.356110,642.129700 453.657318,646.007751 
	C449.142151,650.741821 446.430054,656.000671 449.213501,662.672974 
	C451.672363,668.567322 457.263184,672.609314 463.105988,672.221436 
	C470.338348,671.741333 474.257782,667.054504 476.727417,659.853333 
z"/>
<path fill="#F2F2F2" opacity="1.000000" stroke="none" 
	d="
M346.281097,670.104553 
	C349.888977,670.581421 353.381348,671.709106 356.277344,670.842896 
	C358.580505,670.153992 361.679993,667.110107 361.794739,664.970642 
	C362.361359,654.401428 362.052612,643.785339 362.052612,633.026672 
	C365.073761,633.026672 369.147614,633.026672 373.063782,633.026672 
	C373.063782,643.393188 373.295166,653.478271 372.997894,663.547791 
	C372.707825,673.373718 361.247040,683.146423 350.964264,682.806274 
	C339.873138,682.439270 331.172791,673.992188 331.022644,663.187744 
	C330.884735,653.262207 330.993347,643.333252 330.993347,633.172363 
	C335.281372,633.172363 339.352875,633.172363 342.560913,633.172363 
	C342.560913,643.149719 342.340851,652.893555 342.713928,662.614685 
	C342.808502,665.078674 344.792480,667.470154 346.281097,670.104553 
z"/>
<path fill="#F3F3F3" opacity="1.000000" stroke="none" 
	d="
M281.616028,647.446716 
	C283.519836,643.326050 285.013397,639.400391 287.126678,635.842834 
	C288.026642,634.327881 290.274811,632.645508 291.816315,632.731140 
	C293.642365,632.832581 296.241119,634.350037 296.996124,635.960938 
	C302.645416,648.014221 307.880402,660.260864 313.344452,672.402222 
	C314.674988,675.358765 316.374512,678.149170 318.063812,681.314697 
	C313.562744,681.314697 309.334900,681.314697 304.993469,681.314697 
	C304.618561,679.527527 304.409576,677.902710 303.926025,676.364197 
	C303.058105,673.602417 301.563721,671.772095 298.155365,672.154724 
	C295.359314,672.468689 292.500488,672.196960 289.670227,672.237732 
	C281.334686,672.357788 281.095428,672.581360 279.829834,681.181946 
	C275.831543,681.181946 271.805878,681.181946 267.145294,681.181946 
	C272.060547,669.713684 276.758575,658.752197 281.616028,647.446716 
M287.643250,658.557922 
	C287.346161,659.606384 287.049072,660.654846 286.745209,661.727173 
	C290.449890,661.727173 293.763367,661.727173 297.665192,661.727173 
	C295.835754,657.011719 294.263397,652.958923 292.654083,648.810974 
	C291.983398,649.229370 291.572357,649.334778 291.469543,649.573120 
	C290.290039,652.307068 289.157349,655.061157 287.643250,658.557922 
z"/>
<path fill="#F2F2F2" opacity="1.000000" stroke="none" 
	d="
M400.714050,672.923279 
	C400.738251,662.802246 400.738251,653.165039 400.738251,642.651367 
	C396.255981,643.020569 391.744537,643.392212 387.140869,643.771484 
	C387.140869,640.324036 387.140869,636.606873 387.140869,632.543701 
	C399.800110,632.543701 412.053375,632.543701 424.802551,632.543701 
	C425.011597,635.893005 425.221924,639.262634 425.457184,643.031494 
	C422.078339,643.031494 419.104980,643.245056 416.175934,642.976013 
	C412.718231,642.658325 411.471130,643.738525 411.625397,647.379272 
	C412.101990,658.624146 412.251251,669.882874 412.528809,681.183960 
	C408.815247,681.183960 404.745605,681.183960 400.689819,681.183960 
	C400.689819,678.335632 400.689819,675.871399 400.714050,672.923279 
z"/>
<path fill="#080808" opacity="1.000000" stroke="none" 
	d="
M638.688477,349.701904 
	C652.450867,339.438385 665.807922,329.220367 679.469910,319.427765 
	C686.582031,314.329926 694.784912,312.277924 703.640625,313.299194 
	C713.740479,314.463959 720.425598,320.165680 724.482117,329.121887 
	C729.805054,340.874176 728.727417,353.208771 727.159363,365.499359 
	C727.009277,366.676025 725.766846,368.047760 724.660767,368.705078 
	C721.411438,370.635986 717.708435,371.881317 714.666321,374.067474 
	C707.836487,378.975647 700.232056,381.603546 692.047607,382.782959 
	C656.266113,387.939301 620.534363,393.493774 584.676025,398.049225 
	C549.691101,402.493713 514.562256,401.709229 479.364990,399.821442 
	C441.943207,397.814331 405.382172,390.274902 368.503113,384.728027 
	C361.094910,383.613770 353.626923,382.623718 346.381195,380.801941 
	C341.787842,379.647034 337.644653,376.810364 333.135468,375.182465 
	C328.334869,373.449371 323.340729,372.252319 317.092712,370.431061 
	C316.907990,367.393341 316.447571,362.500916 316.351501,357.601318 
	C316.214752,350.627258 315.375397,343.480804 316.543640,336.702240 
	C320.075775,316.207245 342.185577,305.924042 359.958801,317.038727 
	C375.744659,326.910492 390.597748,338.293030 405.695892,349.238617 
	C415.805145,356.567444 425.582367,364.352875 435.604340,371.804657 
	C437.701630,373.364136 440.140747,375.120728 442.570068,375.374939 
	C444.620087,375.589478 447.209686,374.121216 448.875580,372.631805 
	C449.451660,372.116791 448.401001,368.972015 447.356720,367.581879 
	C438.251831,355.461731 425.098145,348.211731 413.200348,339.430847 
	C401.004761,330.430298 388.969940,321.211945 376.866394,312.086731 
	C375.554291,311.097504 374.252960,310.093964 372.946655,309.097076 
	C373.320465,308.457184 373.694275,307.817261 374.068085,307.177338 
	C382.012756,310.454529 390.534302,312.782104 397.791626,317.190765 
	C417.845520,329.372986 437.122986,342.835388 457.201904,354.973694 
	C468.715424,361.933929 482.110291,363.321686 495.388977,363.297791 
	C517.029419,363.258820 538.690857,363.296021 560.302490,362.358124 
	C578.289062,361.577576 593.665283,352.766449 608.750793,343.836792 
	C617.775696,338.494659 626.772461,333.075287 635.484436,327.246155 
	C640.105652,324.154144 644.099731,320.122406 648.356201,316.490601 
	C648.980164,315.958191 649.384033,314.947510 650.067200,314.738647 
	C657.117615,312.583069 664.204590,310.546997 671.281372,308.477600 
	C671.520630,308.954620 671.759888,309.431641 671.999146,309.908661 
	C670.311768,311.355743 668.702759,312.907990 666.924683,314.233368 
	C652.231567,325.185272 637.521729,336.114990 622.785889,347.009430 
	C615.160217,352.647247 607.390198,358.094330 599.880066,363.880310 
	C598.378052,365.037506 596.611328,367.686310 597.016479,369.028992 
	C597.548584,370.793091 600.299133,373.302460 601.765198,373.099915 
	C605.840942,372.536713 610.329285,371.567017 613.604858,369.264557 
	C622.171753,363.242615 630.179138,356.424591 638.688477,349.701904 
M676.351685,343.858093 
	C657.555725,351.005920 640.207458,360.819611 623.928162,372.547455 
	C622.225525,373.774017 621.117249,375.825623 619.733276,377.494446 
	C621.837524,378.802032 623.940430,381.225677 626.046265,381.228180 
	C636.331970,381.240479 646.767456,381.553711 656.867249,379.964233 
	C669.798279,377.929169 682.575806,374.590393 695.196167,371.023346 
	C703.866760,368.572662 711.148071,363.613831 715.285522,354.972839 
	C717.936951,349.435425 719.657410,344.040771 715.312744,338.609070 
	C711.171631,333.431732 705.582031,332.916229 699.890991,334.827118 
	C692.172485,337.418854 684.661194,340.627747 676.351685,343.858093 
M388.528290,379.926788 
	C399.776459,380.664917 411.159210,383.577576 422.877258,378.123901 
	C421.515106,376.621704 420.811554,375.509277 419.818726,374.804169 
	C411.970215,369.230774 404.599335,362.655548 396.066925,358.444183 
	C379.242462,350.140106 361.842560,342.972595 344.505676,335.755371 
	C339.810974,333.801025 334.318817,333.793854 330.693451,338.350189 
	C326.937225,343.071014 326.162445,348.758240 328.413635,354.415588 
	C331.320862,361.721558 336.566040,366.850708 344.001404,369.665253 
	C358.093384,374.999542 372.604095,378.516632 388.528290,379.926788 
M516.167542,375.556030 
	C511.773560,378.749603 511.297363,384.408295 515.613403,385.607330 
	C519.421753,386.665375 523.814941,386.704376 527.696899,385.928223 
	C529.490906,385.569519 531.693726,382.259247 531.822632,380.170685 
	C531.923340,378.538696 529.351318,375.628754 527.540955,375.232391 
	C524.165161,374.493286 520.479492,375.169342 516.167542,375.556030 
z"/>
<path fill="#050505" opacity="1.000000" stroke="none" 
	d="
M465.991943,255.896744 
	C496.668915,252.791504 526.962280,250.942413 557.267029,253.311157 
	C576.502319,254.814697 595.700684,257.377716 614.735046,260.549561 
	C621.525085,261.681061 628.298828,265.213379 634.170044,269.044403 
	C644.333740,275.676300 653.800232,283.379150 663.523804,290.679901 
	C664.803528,291.640717 665.875183,292.878632 667.862549,294.766479 
	C665.297485,295.467377 663.693176,296.144592 662.035278,296.322449 
	C641.180542,298.559753 620.346436,302.214722 599.452026,302.611816 
	C549.322998,303.564423 499.156708,303.514221 449.022369,302.754242 
	C428.432465,302.442139 407.885864,299.263794 387.320099,297.382843 
	C383.889343,297.069092 380.461548,296.722931 375.587677,296.252197 
	C378.591309,293.647369 380.831970,292.087494 382.604706,290.108490 
	C404.085052,266.128784 431.759369,256.884125 463.030457,256.103943 
	C463.862274,256.083191 464.692261,255.988678 465.991943,255.896744 
M505.086395,259.260345 
	C501.038971,259.993652 496.792206,260.616394 497.317841,266.282227 
	C497.828796,271.789429 502.331726,271.414154 506.014801,271.554901 
	C513.669617,271.847412 521.339783,271.846497 529.002441,271.794128 
	C534.660950,271.755493 540.365540,271.802826 545.948608,271.056549 
	C547.852112,270.802124 550.645874,268.399414 550.861511,266.702393 
	C551.096497,264.852600 549.262451,261.601746 547.529602,260.877533 
	C543.947876,259.380554 539.840698,258.560181 535.939392,258.522552 
	C525.950806,258.426208 515.956665,258.910675 505.086395,259.260345 
z"/>
<path fill="#060606" opacity="1.000000" stroke="none" 
	d="
M443.845490,334.190735 
	C432.746429,327.650787 421.972107,321.281891 411.197784,314.912994 
	C411.429016,314.256012 411.660217,313.598999 411.891418,312.942017 
	C487.494659,318.337555 563.079346,319.803772 638.842102,313.054932 
	C633.321533,316.266113 627.850281,319.566040 622.270386,322.670593 
	C609.318604,329.876678 596.236084,336.850952 583.354126,344.178528 
	C571.414917,350.969788 558.544067,353.693237 544.997131,353.681915 
	C527.855774,353.667572 510.703522,353.810699 493.577087,353.245544 
	C482.479370,352.879333 471.954193,349.690521 462.231903,344.024200 
	C456.336670,340.588348 450.198975,337.568512 443.845490,334.190735 
z"/>
<path fill="#111211" opacity="1.000000" stroke="none" 
	d="
M572.878357,418.766144 
	C537.955811,421.613586 503.531738,422.005432 469.114990,418.111725 
	C458.109833,416.866699 447.641022,418.794800 437.732178,424.173859 
	C425.442352,430.845490 412.746887,436.772461 400.485565,443.493347 
	C381.583710,453.854126 361.862244,455.277863 341.484253,449.478699 
	C336.939758,448.185425 332.528534,445.770599 328.622589,443.056641 
	C324.031799,439.866791 320.783844,435.375183 320.370911,429.394318 
	C319.281097,413.609192 318.146454,397.827148 317.077423,382.040649 
	C316.980225,380.604767 317.226715,379.145630 317.413025,376.039581 
	C325.406891,388.497223 338.255615,390.782043 349.612183,396.325470 
	C348.769592,397.590668 348.158508,398.497772 347.557892,399.411743 
	C341.996185,407.875214 336.374542,416.300262 330.904053,424.822296 
	C328.450500,428.644531 329.507111,432.114166 332.609924,435.149261 
	C338.748505,441.153778 346.450134,443.785736 354.683441,444.672363 
	C369.743805,446.294159 384.169617,444.323883 397.696289,436.770386 
	C408.887573,430.521057 420.510010,425.048706 431.789642,418.951324 
	C441.917603,413.476440 452.610474,411.278687 464.046326,411.889648 
	C481.678070,412.831604 499.318359,414.227478 516.957031,414.257568 
	C535.593689,414.289368 554.273743,413.480316 572.858704,412.049072 
	C590.186829,410.714630 605.640747,414.986145 620.650269,423.317871 
	C632.850403,430.090118 645.490967,436.234070 658.402405,441.517334 
	C674.212341,447.986603 690.270508,445.626190 705.631775,439.350220 
	C714.030457,435.918884 716.852844,429.693359 712.440002,422.284912 
	C708.029358,414.880188 704.898743,406.724121 700.773438,399.133026 
	C699.030151,395.925293 699.220520,394.288788 702.721436,393.268524 
	C702.880859,393.222107 703.033447,393.151917 703.188354,393.090454 
	C712.292542,389.478668 721.586731,386.154083 727.605652,377.245941 
	C727.114807,383.563416 726.673584,389.885223 726.121948,396.197388 
	C725.222900,406.483276 724.362183,416.774536 723.278625,427.041718 
	C722.273193,436.568390 713.267578,445.521332 702.807373,448.704834 
	C678.375610,456.140503 656.266907,450.325562 634.842896,438.128235 
	C623.740784,431.807434 612.424866,425.381897 600.427490,421.278412 
	C592.087769,418.425964 582.423340,419.446869 572.878357,418.766144 
z"/>
<path fill="#141414" opacity="1.000000" stroke="none" 
	d="
M576.047974,443.078857 
	C528.503784,443.362396 481.451508,443.639496 433.498932,443.921875 
	C435.639984,442.234619 437.368561,440.348328 439.506348,439.283844 
	C446.511841,435.795471 454.008514,434.743500 461.828461,435.109467 
	C476.957764,435.817474 492.096252,436.636993 507.235687,436.744843 
	C526.883789,436.884888 546.537537,436.437531 566.186523,436.101868 
	C571.000427,436.019684 575.850708,434.783783 580.603821,435.143036 
	C589.153442,435.789215 597.670776,437.069305 606.134766,438.484436 
	C608.094910,438.812134 609.785767,440.750122 611.600464,441.947144 
	C611.439270,442.322235 611.278137,442.697296 611.116943,443.072388 
	C599.591309,443.072388 588.065613,443.072388 576.047974,443.078857 
z"/>
<path fill="#242423" opacity="1.000000" stroke="none" 
	d="
M690.881592,403.084412 
	C674.628174,399.747650 659.496399,406.497925 643.862183,408.130920 
	C641.424011,408.385559 639.059509,409.346039 635.353943,410.325653 
	C639.374207,412.765747 642.297729,414.795380 645.437439,416.402649 
	C660.940979,424.339355 676.682068,430.910278 694.573303,424.258484 
	C695.492981,423.916595 696.913269,424.921082 698.100464,425.298706 
	C697.215149,426.509338 696.564636,428.439850 695.407654,428.817078 
	C685.858398,431.930573 675.834229,433.246338 666.510681,429.348236 
	C654.274841,424.232513 642.684937,417.588715 630.690979,411.866669 
	C627.196106,410.199310 623.270386,409.434998 618.324768,407.872040 
	C620.259949,406.973389 621.231201,406.236450 622.291016,406.072632 
	C641.553406,403.094757 660.827454,400.192200 680.096558,397.257904 
	C685.025879,396.507294 689.019592,397.554993 690.881592,403.084412 
z"/>
<path fill="#242423" opacity="1.000000" stroke="none" 
	d="
M360.695984,397.151855 
	C376.017792,399.511322 390.930847,401.906342 405.840851,404.320221 
	C410.920685,405.142639 416.001007,405.967377 421.062988,406.890533 
	C422.427002,407.139252 423.724518,407.752594 425.052582,408.198608 
	C425.076080,408.769623 425.099579,409.340668 425.123077,409.911713 
	C423.288147,410.293884 421.374542,411.221008 419.631195,410.969269 
	C408.806305,409.406128 398.006378,407.655731 387.225708,405.806702 
	C381.666107,404.853149 376.206329,403.140869 370.620209,402.578735 
	C366.709991,402.185272 362.662201,403.158478 358.195038,403.565094 
	C357.955322,401.955963 355.871429,398.919983 360.695984,397.151855 
z"/>
<path fill="#1D1E1D" opacity="1.000000" stroke="none" 
	d="
M380.375122,429.481873 
	C367.208771,432.695679 349.253387,430.999878 342.923798,425.785736 
	C343.978241,424.452759 345.042267,423.107697 346.205750,421.636871 
	C365.301910,431.580048 383.010803,424.346802 400.887817,417.605347 
	C395.128510,423.641388 388.020874,426.632782 380.375122,429.481873 
z"/>
<path fill="#1D1E1D" opacity="1.000000" stroke="none" 
	d="
M316.616821,290.589020 
	C319.889374,290.359924 322.725281,290.288330 325.540558,290.008789 
	C328.003815,289.764221 329.415100,290.359406 329.184326,293.193207 
	C328.978058,295.726135 329.181671,298.863861 325.477753,298.272217 
	C318.656586,297.182709 311.919403,295.567413 305.147186,294.171204 
	C305.148987,293.648010 305.150787,293.124817 305.152588,292.601624 
	C308.825470,291.953156 312.498322,291.304657 316.616821,290.589020 
z"/>
<path fill="#242423" opacity="1.000000" stroke="none" 
	d="
M736.232544,293.923584 
	C730.759521,295.318298 725.636780,296.683777 720.461609,297.807922 
	C719.145386,298.093872 716.733948,298.043335 716.436707,297.401489 
	C715.653381,295.709747 715.400818,293.552063 715.694824,291.700195 
	C715.798950,291.044159 718.117615,290.280609 719.383362,290.348389 
	C724.499451,290.622375 729.608337,291.127441 734.694397,291.754211 
	C735.391052,291.840057 735.943909,293.092499 736.232544,293.923584 
z"/>
<path fill="#080808" opacity="1.000000" stroke="none" 
	d="
M405.648315,533.606201 
	C403.843506,544.604736 400.867188,547.286316 390.114258,547.515381 
	C383.023224,547.666382 375.926422,547.543884 368.528320,547.543884 
	C368.528320,536.874207 368.528320,526.970093 368.528320,515.706970 
	C378.055695,516.268494 387.644897,516.158447 396.987152,517.623230 
	C403.153931,518.590149 405.850830,524.809448 405.648315,533.606201 
z"/>
<path fill="#040404" opacity="1.000000" stroke="none" 
	d="
M943.632874,541.834717 
	C945.273560,552.700989 943.731873,562.344177 937.475952,571.229126 
	C929.867126,582.035400 919.505188,586.701965 906.812988,584.548035 
	C893.281311,582.251587 883.836670,574.219299 880.046265,560.673340 
	C875.881348,545.788879 880.629333,529.647461 890.985779,522.097961 
	C910.780762,507.668030 936.443726,517.092590 943.632874,541.834717 
z"/>
<path fill="#111211" opacity="1.000000" stroke="none" 
	d="
M261.376709,547.310913 
	C263.542114,542.396423 265.550690,537.828796 268.012238,532.231140 
	C272.662872,542.079773 276.979065,551.220154 281.568848,560.939880 
	C272.882782,560.939880 264.715363,560.939880 255.594376,560.939880 
	C257.554291,556.312439 259.387085,551.985107 261.376709,547.310913 
z"/>
<path fill="#141414" opacity="1.000000" stroke="none" 
	d="
M684.854919,661.959290 
	C686.304749,662.005310 687.577087,661.647705 688.234863,662.129456 
	C690.032349,663.445740 691.570801,665.115723 693.211853,666.645630 
	C691.621887,668.279358 690.293762,670.451965 688.365295,671.389282 
	C686.578979,672.257446 684.133728,671.677551 682.008667,671.960876 
	C678.126099,672.478577 677.640198,670.298462 677.765320,667.200134 
	C677.881714,664.319397 677.385376,661.232971 681.918640,661.880920 
	C682.730957,661.996948 683.570251,661.924194 684.854919,661.959290 
z"/>
<path fill="#1D1E1D" opacity="1.000000" stroke="none" 
	d="
M680.973694,651.528992 
	C673.648743,650.880981 679.434326,645.531860 676.620544,643.338196 
	C676.881042,643.026184 677.141541,642.714172 677.402039,642.402222 
	C679.806641,642.294495 682.399170,641.582886 684.560974,642.255493 
	C686.565186,642.879211 688.109253,644.981934 689.855957,646.433411 
	C688.351013,647.970947 687.010559,649.744507 685.276306,650.952881 
	C684.317322,651.620972 682.698669,651.342346 680.973694,651.528992 
z"/>
<path fill="#080808" opacity="1.000000" stroke="none" 
	d="
M476.630127,660.245850 
	C474.257782,667.054504 470.338348,671.741333 463.105988,672.221436 
	C457.263184,672.609314 451.672363,668.567322 449.213501,662.672974 
	C446.430054,656.000671 449.142151,650.741821 453.657318,646.007751 
	C457.356110,642.129700 463.462891,640.303101 467.728607,642.510498 
	C472.997375,645.236938 476.393799,649.659546 476.796875,655.874573 
	C476.882416,657.193726 476.756104,658.526733 476.630127,660.245850 
z"/>
<path fill="#1D1E1D" opacity="1.000000" stroke="none" 
	d="
M287.827728,658.183899 
	C289.157349,655.061157 290.290039,652.307068 291.469543,649.573120 
	C291.572357,649.334778 291.983398,649.229370 292.654083,648.810974 
	C294.263397,652.958923 295.835754,657.011719 297.665192,661.727173 
	C293.763367,661.727173 290.449890,661.727173 286.745209,661.727173 
	C287.049072,660.654846 287.346161,659.606384 287.827728,658.183899 
z"/>
<path fill="#F4F4F4" opacity="1.000000" stroke="none" 
	d="
M676.706299,343.714996 
	C684.661194,340.627747 692.172485,337.418854 699.890991,334.827118 
	C705.582031,332.916229 711.171631,333.431732 715.312744,338.609070 
	C719.657410,344.040771 717.936951,349.435425 715.285522,354.972839 
	C711.148071,363.613831 703.866760,368.572662 695.196167,371.023346 
	C682.575806,374.590393 669.798279,377.929169 656.867249,379.964233 
	C646.767456,381.553711 636.331970,381.240479 626.046265,381.228180 
	C623.940430,381.225677 621.837524,378.802032 619.733276,377.494446 
	C621.117249,375.825623 622.225525,373.774017 623.928162,372.547455 
	C640.207458,360.819611 657.555725,351.005920 676.706299,343.714996 
M648.762085,370.779938 
	C659.308960,367.801392 669.876526,364.893768 680.394226,361.815582 
	C685.968384,360.184174 691.533142,358.458771 696.952515,356.384857 
	C700.098511,355.180939 703.244324,353.432617 702.967224,348.382355 
	C700.750427,348.920410 698.837402,349.192749 697.066101,349.848053 
	C689.585327,352.615417 682.128357,355.449463 674.697632,358.348724 
	C665.772339,361.831146 656.882568,365.404694 647.354065,368.979187 
	C647.029907,369.481171 646.705750,369.983154 646.381592,370.485168 
	C646.925049,370.553802 647.468506,370.622437 648.762085,370.779938 
z"/>
<path fill="#F4F4F4" opacity="1.000000" stroke="none" 
	d="
M388.078064,379.886993 
	C372.604095,378.516632 358.093384,374.999542 344.001404,369.665253 
	C336.566040,366.850708 331.320862,361.721558 328.413635,354.415588 
	C326.162445,348.758240 326.937225,343.071014 330.693451,338.350189 
	C334.318817,333.793854 339.810974,333.801025 344.505676,335.755371 
	C361.842560,342.972595 379.242462,350.140106 396.066925,358.444183 
	C404.599335,362.655548 411.970215,369.230774 419.818726,374.804169 
	C420.811554,375.509277 421.515106,376.621704 422.877258,378.123901 
	C411.159210,383.577576 399.776459,380.664917 388.078064,379.886993 
M351.199402,352.490723 
	C349.328583,351.421936 347.527435,350.192719 345.563019,349.339478 
	C344.201752,348.748199 342.615509,348.674896 341.129791,348.370117 
	C341.395081,350.038147 341.069611,352.556763 342.030121,353.223846 
	C345.769836,355.821075 349.708069,358.416351 353.957306,359.936462 
	C362.525757,363.001801 371.319977,365.453522 380.074921,367.971161 
	C383.568115,368.975708 387.203705,369.484955 390.774475,370.219666 
	C390.925537,369.615082 391.076599,369.010498 391.227661,368.405914 
	C378.691040,361.827728 365.076050,357.836517 351.199402,352.490723 
z"/>
<path fill="#ECEBEB" opacity="1.000000" stroke="none" 
	d="
M516.545166,375.406250 
	C520.479492,375.169342 524.165161,374.493286 527.540955,375.232391 
	C529.351318,375.628754 531.923340,378.538696 531.822632,380.170685 
	C531.693726,382.259247 529.490906,385.569519 527.696899,385.928223 
	C523.814941,386.704376 519.421753,386.665375 515.613403,385.607330 
	C511.297363,384.408295 511.773560,378.749603 516.545166,375.406250 
z"/>
<path fill="#F2F2F2" opacity="1.000000" stroke="none" 
	d="
M505.525574,259.211609 
	C515.956665,258.910675 525.950806,258.426208 535.939392,258.522552 
	C539.840698,258.560181 543.947876,259.380554 547.529602,260.877533 
	C549.262451,261.601746 551.096497,264.852600 550.861511,266.702393 
	C550.645874,268.399414 547.852112,270.802124 545.948608,271.056549 
	C540.365540,271.802826 534.660950,271.755493 529.002441,271.794128 
	C521.339783,271.846497 513.669617,271.847412 506.014801,271.554901 
	C502.331726,271.414154 497.828796,271.789429 497.317841,266.282227 
	C496.792206,260.616394 501.038971,259.993652 505.525574,259.211609 
z"/>
<path fill="#1D1E1D" opacity="1.000000" stroke="none" 
	d="
M647.977417,368.938782 
	C656.882568,365.404694 665.772339,361.831146 674.697632,358.348724 
	C682.128357,355.449463 689.585327,352.615417 697.066101,349.848053 
	C698.837402,349.192749 700.750427,348.920410 702.967224,348.382355 
	C703.244324,353.432617 700.098511,355.180939 696.952515,356.384857 
	C691.533142,358.458771 685.968384,360.184174 680.394226,361.815582 
	C669.876526,364.893768 659.308960,367.801392 648.392822,370.443359 
	C648.008179,369.717438 647.992798,369.328094 647.977417,368.938782 
z"/>
<path fill="#242423" opacity="1.000000" stroke="none" 
	d="
M647.665771,368.958984 
	C647.992798,369.328094 648.008179,369.717438 648.017761,370.398926 
	C647.468506,370.622437 646.925049,370.553802 646.381592,370.485168 
	C646.705750,369.983154 647.029907,369.481171 647.665771,368.958984 
z"/>
<path fill="#1D1E1D" opacity="1.000000" stroke="none" 
	d="
M351.557373,352.623108 
	C365.076050,357.836517 378.691040,361.827728 391.227661,368.405914 
	C391.076599,369.010498 390.925537,369.615082 390.774475,370.219666 
	C387.203705,369.484955 383.568115,368.975708 380.074921,367.971161 
	C371.319977,365.453522 362.525757,363.001801 353.957306,359.936462 
	C349.708069,358.416351 345.769836,355.821075 342.030121,353.223846 
	C341.069611,352.556763 341.395081,350.038147 341.129791,348.370117 
	C342.615509,348.674896 344.201752,348.748199 345.563019,349.339478 
	C347.527435,350.192719 349.328583,351.421936 351.557373,352.623108 
z"/>
</svg>