<?xml version="1.0" standalone="no"?>
<!DOCTYPE svg PUBLIC "-//W3C//DTD SVG 20010904//EN"
 "http://www.w3.org/TR/2001/REC-SVG-20010904/DTD/svg10.dtd">
<svg version="1.0" xmlns="http://www.w3.org/2000/svg"
 width="1024.000000pt" height="1024.000000pt" viewBox="0 0 1024.000000 1024.000000"
 preserveAspectRatio="xMidYMid meet">

<g transform="translate(0.000000,1024.000000) scale(0.100000,-0.100000)"
fill="#000000" stroke="none">
<path d="M0 5120 l0 -5120 5120 0 5120 0 0 5120 0 5120 -5120 0 -5120 0 0
-5120z m5765 2710 c517 -48 684 -123 1063 -476 112 -105 112 -106 152 -99 22
4 40 9 40 11 0 2 -9 18 -20 36 -31 52 -26 90 16 128 20 17 47 36 61 41 59 22
281 1 365 -35 73 -31 98 -99 59 -162 -13 -22 -46 -45 -114 -78 -52 -26 -98
-50 -101 -53 -3 -3 6 -19 19 -35 13 -16 41 -63 62 -105 l38 -77 -1 -216 c0
-214 -36 -863 -54 -972 -13 -83 -36 -125 -84 -153 -40 -23 -46 -24 -317 -27
l-275 -3 -25 28 c-20 23 -41 31 -124 48 -96 19 -133 20 -865 17 -421 -2 -983
-3 -1250 -3 -437 0 -491 -2 -545 -18 -40 -12 -67 -28 -85 -49 l-26 -31 -280 5
c-266 4 -282 5 -327 27 -76 37 -93 78 -101 236 -3 72 -13 263 -21 425 -19 375
-21 642 -5 700 17 62 45 114 86 160 40 44 43 41 -63 80 -80 29 -148 87 -157
134 -10 51 10 83 68 111 75 36 147 49 283 49 108 1 124 -1 150 -20 46 -35 51
-66 20 -129 l-27 -55 26 -10 c46 -18 71 -11 120 33 422 372 599 472 904 511
149 19 356 35 500 40 182 6 720 -3 835 -14z m-2820 -2005 l0 -60 -1065 0
-1065 0 0 45 c1 25 4 53 8 63 6 16 64 17 1064 15 l1058 -3 0 -60z m6623 3 l3
-58 -1056 0 -1055 0 0 53 c0 30 3 57 7 60 3 4 477 6 1052 5 l1046 -3 3 -57z
m-6834 -535 c34 -70 261 -557 381 -818 47 -104 95 -201 105 -215 l18 -26 -159
1 c-87 0 -159 2 -159 4 0 3 10 15 21 27 29 31 27 61 -8 130 l-29 59 -219 0
-220 0 -23 -50 c-37 -78 -39 -109 -8 -140 14 -14 26 -28 26 -30 0 -3 -68 -5
-152 -5 l-151 0 21 23 c12 12 82 160 157 327 125 279 162 361 306 668 26 56
52 102 56 102 5 0 22 -26 37 -57z m3356 -19 c206 -3 376 -7 378 -9 2 -2 -2
-14 -9 -26 -8 -16 -10 -55 -6 -133 l6 -111 -27 31 c-45 52 -55 54 -281 54
l-211 0 0 -122 0 -121 171 6 c159 5 173 7 195 28 13 12 24 21 24 18 4 -59 3
-279 -1 -279 -3 0 -16 11 -29 25 -23 25 -25 25 -197 25 l-173 0 0 -125 0 -125
208 0 c117 0 224 5 246 11 39 11 67 33 99 78 21 32 30 23 16 -16 -5 -17 -16
-80 -22 -139 l-12 -109 -397 -1 c-280 0 -395 3 -391 10 3 6 15 21 27 34 19 22
21 40 27 225 4 111 8 312 8 446 l1 245 -49 47 c-27 26 -47 50 -44 52 2 3 19 1
36 -4 18 -5 201 -12 407 -15z m-884 -4 c43 -11 112 -36 153 -55 40 -19 82 -35
92 -35 26 0 24 -16 -8 -54 -32 -39 -53 -86 -53 -124 0 -16 -3 -31 -6 -35 -3
-3 -33 14 -65 38 -89 65 -155 87 -269 88 -76 1 -104 -3 -140 -19 -57 -26 -128
-97 -160 -160 -22 -42 -25 -62 -25 -144 1 -110 13 -158 57 -224 96 -145 293
-187 476 -101 45 21 89 46 98 56 10 11 23 19 29 19 11 0 75 -127 75 -149 0 -5
-30 -27 -68 -50 -155 -93 -277 -121 -424 -96 -278 49 -451 244 -450 510 0 213
111 405 279 486 141 68 273 83 409 49z m-3223 4 c4 -4 -10 -25 -29 -47 l-36
-40 7 -166 c7 -183 31 -552 41 -645 5 -45 15 -68 41 -104 l35 -45 -38 6 c-22
4 -97 7 -167 7 l-129 0 26 30 c14 17 28 47 32 68 8 39 -11 363 -24 422 l-8 35
-16 -31 c-9 -16 -60 -99 -113 -183 -53 -84 -123 -205 -157 -268 -33 -63 -64
-111 -68 -106 -5 4 -33 53 -63 108 -30 55 -96 178 -148 272 -52 95 -97 173
-101 173 -5 0 -8 -21 -8 -46 0 -26 -7 -122 -15 -215 -14 -149 -14 -172 -1
-197 8 -16 22 -34 30 -41 9 -8 16 -17 16 -22 0 -5 -70 -9 -155 -9 l-155 0 31
43 c38 54 53 139 74 417 8 113 20 255 26 316 14 136 9 169 -37 223 l-36 42 97
-3 97 -3 119 -224 c65 -123 139 -258 163 -300 24 -42 52 -93 62 -113 10 -21
21 -38 24 -38 3 0 48 80 100 178 112 212 201 365 264 450 l46 62 83 0 c46 0
87 -3 90 -6z m1985 -4 c84 -14 148 -45 198 -97 86 -88 111 -273 50 -377 -32
-54 -121 -146 -142 -146 -33 0 -24 -33 31 -115 69 -104 204 -249 258 -276 21
-11 37 -22 34 -25 -2 -2 -74 -1 -160 2 l-156 7 -93 120 c-51 66 -108 143 -126
171 l-32 51 -73 6 c-39 3 -75 4 -79 1 -5 -2 -8 -66 -8 -143 l0 -139 36 -40 36
-40 -166 0 c-91 0 -166 3 -166 7 0 4 12 20 28 36 l27 28 3 441 3 442 -42 42
-42 43 59 4 c136 8 464 6 522 -3z m3102 6 c0 -2 -18 -22 -40 -44 l-40 -40 0
-392 0 -393 183 6 c100 4 195 9 210 13 16 4 49 27 73 52 24 25 46 43 50 40 3
-4 0 -33 -7 -65 -6 -32 -15 -94 -18 -138 l-6 -80 -377 -2 c-208 -1 -378 2
-378 7 0 4 7 14 17 21 41 35 44 65 50 503 l6 421 -39 38 c-21 20 -42 37 -46
37 -4 0 -8 5 -8 10 0 6 68 10 185 10 102 0 185 -2 185 -4z m960 -5 c0 -2 -18
-20 -40 -40 l-40 -36 -2 -390 -3 -390 145 -3 c82 -2 175 2 215 8 64 11 74 16
118 61 26 27 47 46 47 41 0 -4 -7 -39 -15 -79 -8 -39 -18 -102 -22 -140 l-8
-68 -373 -3 -373 -2 28 37 28 36 3 448 3 447 -45 35 c-25 19 -44 36 -42 38 5
5 376 5 376 0z m1192 -2 c97 -20 177 -66 259 -148 120 -120 168 -246 155 -405
-17 -203 -122 -358 -299 -446 -156 -77 -311 -75 -473 4 -125 62 -211 158 -263
296 -21 56 -25 82 -25 185 0 132 13 178 76 285 58 96 222 205 343 228 70 14
165 14 227 1z m-6252 -1397 c12 -26 54 -119 92 -207 38 -88 79 -175 90 -193
11 -18 19 -34 17 -35 -2 -2 -31 -1 -65 1 l-60 4 -15 41 -14 42 -97 3 -97 3
-16 -30 c-8 -17 -15 -37 -15 -46 0 -12 -12 -15 -60 -15 -33 0 -60 4 -60 9 0
23 196 463 211 471 5 4 22 5 38 2 22 -3 33 -14 51 -50z m1270 1 l0 -53 -66 0
-66 0 4 -195 c2 -160 1 -194 -10 -190 -8 3 -35 5 -60 5 l-47 0 3 191 3 192
-70 -5 -71 -5 0 52 c0 28 2 54 4 56 3 2 88 4 190 4 l186 1 0 -53z m461 43
c139 -49 209 -225 137 -346 -54 -93 -130 -140 -223 -140 -75 0 -147 32 -194
85 -46 53 -61 94 -61 167 0 137 113 246 255 247 28 0 66 -6 86 -13z m930 -1
c24 -9 53 -23 64 -31 19 -15 19 -16 -22 -55 l-43 -40 -30 22 c-37 28 -104 30
-143 5 -45 -30 -67 -76 -67 -141 0 -102 51 -142 165 -127 55 6 60 9 63 33 4
38 -18 51 -67 40 l-41 -9 0 48 0 48 112 -5 c62 -2 113 -5 113 -6 0 -1 -2 -48
-5 -104 -6 -116 -6 -117 -98 -152 -104 -40 -192 -22 -273 56 -87 84 -111 212
-56 305 64 110 201 157 328 113z m808 -1 c2 -2 -2 -10 -9 -19 -10 -12 -11 -59
-6 -217 4 -111 12 -210 17 -220 13 -24 -1 -29 -69 -22 l-59 7 -2 110 c-1 61
-4 113 -7 116 -7 7 -30 -23 -96 -121 -37 -54 -56 -74 -64 -67 -6 5 -33 45 -60
89 -27 44 -52 80 -56 80 -5 0 -8 -47 -8 -105 l0 -105 -50 0 -49 0 4 63 c16
204 24 387 19 401 -5 13 2 16 39 16 34 0 46 -4 51 -17 10 -26 130 -223 136
-222 3 0 38 56 78 124 l73 123 57 -5 c31 -3 59 -7 61 -9z m-3012 -8 c-3 -8 -7
-86 -8 -172 -2 -153 -1 -158 21 -176 12 -10 34 -21 47 -24 35 -9 101 13 114
37 6 13 9 80 7 185 l-3 164 60 0 60 0 -3 -167 c-4 -178 -9 -201 -61 -256 -30
-33 -81 -61 -128 -72 -77 -16 -193 51 -222 128 -6 16 -11 103 -11 198 l0 169
66 0 c54 0 65 -3 61 -14z m3486 0 c18 -7 46 -28 61 -47 23 -27 27 -40 23 -72
-3 -24 -16 -50 -32 -67 l-27 -28 31 -16 c65 -34 80 -114 31 -170 -50 -57 -82
-66 -227 -66 l-128 0 3 210 c3 171 1 216 -12 240 l-14 30 129 0 c87 0 140 -5
162 -14z m429 -73 l3 -88 85 0 85 0 0 88 0 87 62 0 61 0 -1 -240 -2 -240 -57
0 -58 0 0 95 0 95 -91 0 -90 0 2 -97 2 -98 -64 0 -64 -1 0 226 c0 124 -4 233
-9 243 -7 15 -1 17 63 17 l70 0 3 -87z m-4848 -125 c-3 -24 -7 -49 -10 -56 -3
-10 -133 -12 -666 -10 -365 1 -742 4 -839 6 l-176 4 4 26 c2 15 6 37 9 50 l4
22 840 0 840 0 -6 -42z m7068 30 c3 -7 4 -29 4 -48 l-1 -35 -849 -3 -849 -2 7
31 c3 17 6 40 6 50 0 18 25 19 839 19 662 0 840 -3 843 -12z"/>
<path d="M4990 7719 c-47 -4 -175 -14 -285 -23 -395 -33 -516 -62 -666 -161
-73 -49 -272 -221 -277 -239 -2 -8 39 -16 120 -24 68 -7 182 -19 253 -27 290
-32 638 -39 1360 -27 579 9 717 14 860 31 202 24 297 42 302 58 5 14 -309 250
-390 294 -110 59 -432 105 -827 119 -287 10 -330 10 -450 -1z m475 -78 c24
-14 30 -24 30 -52 0 -30 -4 -35 -35 -46 -63 -22 -462 -14 -485 9 -16 15 -14
57 3 79 19 23 27 24 169 30 187 8 280 2 318 -20z"/>
<path d="M3120 7338 c-79 -13 -89 -17 -70 -27 25 -14 198 -44 214 -38 10 4 16
19 16 42 l0 35 -52 -1 c-29 -1 -78 -6 -108 -11z"/>
<path d="M7152 7337 c-13 -15 -4 -67 12 -67 25 -1 196 44 196 51 0 8 -33 13
-141 23 -39 4 -60 2 -67 -7z"/>
<path d="M3740 7147 c31 -31 305 -239 391 -297 228 -154 374 -290 351 -327
-12 -18 -52 -34 -72 -28 -11 3 -48 27 -82 53 -35 26 -73 54 -85 62 -12 8 -111
83 -220 165 -434 328 -493 359 -635 337 -97 -15 -167 -62 -205 -141 -25 -50
-28 -69 -31 -171 -1 -63 1 -151 5 -195 l8 -79 48 3 c40 2 60 -4 123 -38 86
-47 121 -55 449 -106 127 -20 302 -49 390 -65 375 -68 1064 -101 1460 -70 228
18 593 65 810 105 44 9 177 28 295 45 257 35 291 44 395 110 43 27 87 50 97
50 29 0 38 42 38 170 0 140 -21 222 -75 292 -50 67 -110 93 -210 93 -94 0
-159 -26 -254 -100 -32 -25 -106 -78 -163 -118 -106 -73 -185 -133 -371 -285
-56 -45 -116 -86 -133 -91 -37 -10 -79 -4 -94 15 -24 28 -6 57 68 108 40 28
123 90 185 137 107 82 460 346 481 361 6 4 7 10 3 14 -4 4 -53 -5 -111 -20
-97 -26 -106 -31 -140 -72 -20 -24 -58 -56 -84 -71 -51 -29 -155 -93 -297
-183 -49 -32 -121 -70 -160 -85 -38 -15 -90 -38 -115 -50 -92 -46 -263 -65
-580 -65 -448 1 -563 24 -780 160 -287 180 -393 249 -446 291 -58 46 -142 81
-254 106 l-25 5 25 -25z m3397 -281 c24 -25 33 -45 33 -69 0 -44 -53 -149 -92
-182 -113 -95 -442 -178 -714 -179 -106 -1 -145 2 -157 13 -36 29 -20 48 111
135 143 94 226 138 433 227 199 85 245 100 303 95 42 -3 55 -9 83 -40z m-3657
14 c94 -32 437 -191 527 -245 92 -54 203 -143 203 -161 0 -27 -71 -37 -215
-31 -223 10 -454 58 -591 123 -88 41 -156 151 -139 223 25 109 86 135 215 91z
m1811 -396 c27 -24 24 -59 -8 -84 -23 -18 -38 -21 -80 -18 -63 5 -83 20 -83
63 0 31 10 41 60 59 27 10 91 -2 111 -20z"/>
<path d="M6875 6719 c-55 -22 -149 -57 -210 -78 -135 -48 -201 -76 -209 -90
-10 -16 2 -14 111 14 198 52 408 124 431 148 55 58 15 60 -123 6z"/>
<path d="M3400 6746 c0 -31 35 -59 108 -86 73 -28 370 -110 395 -110 31 0 4
25 -46 43 -237 87 -377 142 -403 158 -41 25 -54 24 -54 -5z"/>
<path d="M6220 7115 c-188 -29 -471 -37 -1101 -32 -463 4 -661 9 -769 21 -80
8 -169 15 -199 16 -45 0 -52 -2 -42 -14 31 -37 505 -308 607 -346 154 -59 708
-73 924 -24 84 19 274 113 512 252 87 51 173 100 193 109 73 35 29 41 -125 18z"/>
<path d="M3165 6365 c3 -66 10 -158 16 -205 5 -47 9 -110 9 -140 0 -117 45
-187 154 -239 80 -39 239 -66 350 -58 110 7 183 35 481 188 137 70 277 135
310 145 63 18 133 17 405 -5 177 -15 488 -13 723 5 323 23 377 12 648 -142
128 -72 231 -121 314 -150 72 -25 93 -28 210 -28 142 1 229 18 301 59 47 27
110 94 124 131 10 25 20 122 40 369 5 66 12 135 16 153 8 38 -5 42 -26 8 -24
-40 -86 -83 -168 -116 -42 -18 -81 -35 -85 -40 -4 -4 8 -34 27 -66 19 -32 56
-107 81 -165 51 -121 51 -134 -9 -187 -60 -53 -233 -90 -371 -79 -108 8 -274
76 -545 224 -52 29 -135 64 -185 78 -88 26 -93 27 -255 18 -216 -11 -831 -10
-1040 1 -121 6 -180 5 -223 -3 -38 -8 -156 -62 -340 -155 -321 -163 -351 -172
-536 -164 -151 7 -246 47 -291 121 -13 20 -16 37 -10 56 11 38 94 177 147 244
26 33 42 62 37 67 -5 5 -44 22 -87 39 -96 38 -119 52 -181 110 l-48 46 7 -120z"/>
<path d="M3583 6273 c-7 -2 -13 -20 -13 -39 l0 -35 30 16 c36 19 76 19 160 0
313 -70 460 -89 476 -64 10 17 -13 27 -91 39 -38 7 -133 23 -210 37 -161 28
-315 53 -330 52 -5 0 -16 -3 -22 -6z"/>
<path d="M6675 6259 c-60 -10 -195 -31 -300 -47 -104 -15 -189 -32 -188 -38 1
-5 23 -14 50 -20 26 -6 73 -28 103 -48 63 -42 137 -78 266 -130 80 -31 102
-36 176 -36 105 0 188 22 188 50 0 24 -12 25 -76 5 -90 -27 -179 -20 -298 24
-58 21 -138 58 -178 82 l-73 43 30 12 c17 6 75 19 130 28 55 9 139 23 187 32
83 15 136 15 186 -1 30 -10 29 9 -3 40 -29 30 -49 30 -200 4z"/>
<path d="M4010 6089 c-190 -87 -308 -115 -421 -99 -39 6 -84 17 -100 26 -28
14 -32 14 -50 -2 -25 -23 -24 -30 9 -42 96 -37 261 -43 354 -11 77 26 159 67
223 113 56 41 51 45 -15 15z"/>
<path d="M4462 5885 c-77 -22 -132 -54 -132 -78 0 -5 8 -6 18 -1 9 4 357 9
772 11 415 2 773 4 795 5 22 1 71 0 109 -2 122 -9 89 33 -51 65 -60 14 -103
15 -294 7 -249 -10 -934 -9 -1074 1 -67 5 -104 3 -143 -8z"/>
<path d="M2613 4797 c-29 -67 -55 -130 -59 -139 -6 -17 4 -18 121 -18 98 0
126 3 122 13 -18 46 -123 267 -127 267 -3 0 -29 -55 -57 -123z"/>
<path d="M3678 5084 c-5 -4 -8 -74 -8 -154 l0 -147 111 -5 c198 -8 239 10 261
114 11 51 10 63 -8 105 -31 74 -62 87 -219 91 -71 2 -133 0 -137 -4z"/>
<path d="M9051 5089 c-121 -16 -220 -99 -256 -216 -26 -82 -17 -221 17 -288
32 -61 103 -129 166 -158 71 -33 199 -30 268 5 65 34 118 94 156 174 28 59 30
71 26 157 -2 71 -8 103 -26 139 -68 139 -197 207 -351 187z"/>
<path d="M2882 3702 c-12 -32 -22 -61 -22 -65 0 -4 23 -7 50 -7 28 0 50 4 50
9 0 16 -43 121 -49 121 -3 0 -16 -26 -29 -58z"/>
<path d="M4539 3803 c-34 -29 -68 -94 -69 -131 0 -37 37 -98 73 -121 120 -74
263 65 201 195 -27 56 -68 84 -124 84 -38 0 -55 -6 -81 -27z"/>
<path d="M6767 3823 c-12 -11 -8 -71 5 -79 20 -12 81 -4 101 13 22 20 22 36
-1 56 -18 17 -92 24 -105 10z"/>
<path d="M6772 3583 l3 -48 48 -3 c59 -4 97 17 97 53 0 32 -27 45 -95 45 l-56
0 3 -47z"/>
</g>
</svg>
