<?xml version="1.0" standalone="no"?>
<!DOCTYPE svg PUBLIC "-//W3C//DTD SVG 20010904//EN"
 "http://www.w3.org/TR/2001/REC-SVG-20010904/DTD/svg10.dtd">
<svg version="1.0" xmlns="http://www.w3.org/2000/svg"
 width="545.000000pt" height="302.000000pt" viewBox="0 0 545.000000 302.000000"
 preserveAspectRatio="xMidYMid meet">

<g transform="translate(0.000000,302.000000) scale(0.100000,-0.100000)"
fill="#000000" stroke="none">
<path d="M0 1510 l0 -1510 2725 0 2725 0 0 1510 0 1510 -2725 0 -2725 0 0
-1510z m3258 1331 c51 -11 121 -33 155 -49 64 -30 192 -128 262 -201 40 -42
83 -57 70 -23 -29 74 -6 102 85 102 78 -1 129 -15 158 -44 22 -22 24 -28 14
-50 -6 -14 -33 -36 -62 -51 -50 -25 -60 -38 -39 -51 6 -3 20 -25 30 -48 22
-49 25 -224 8 -486 -16 -242 -17 -244 -206 -248 -115 -4 -137 -2 -161 14 -54
36 -127 39 -785 34 l-639 -5 -18 -22 c-17 -22 -25 -23 -168 -23 -170 0 -193 9
-211 78 -5 20 -15 157 -21 303 -11 237 -11 272 4 321 8 30 25 63 36 73 11 10
20 21 20 25 0 4 -20 15 -45 25 -53 20 -78 52 -73 92 3 24 11 31 53 45 28 9 80
17 116 18 93 0 116 -28 84 -102 -5 -14 -2 -18 13 -18 12 0 67 41 128 96 168
150 246 185 462 210 179 20 608 12 730 -15z m-1560 -1008 l3 -33 -546 0 -546
0 3 28 3 27 100 6 c55 3 298 5 540 5 l440 -1 3 -32z m3396 2 l0 -30 -554 0
-555 0 -3 33 -3 33 557 -3 558 -3 0 -30z m-3503 -267 c12 -31 82 -190 186
-423 25 -55 53 -109 64 -121 10 -11 19 -22 19 -25 0 -2 -40 -4 -90 -4 -84 0
-104 5 -80 20 15 9 12 42 -5 75 l-16 30 -108 0 -108 0 -16 -42 c-15 -37 -15
-43 -2 -58 8 -9 15 -18 15 -21 0 -2 -38 -4 -85 -5 l-85 0 19 20 c11 12 42 73
69 136 27 63 81 183 121 266 39 84 71 159 71 168 0 27 17 18 31 -16z m-783
-201 l90 -178 89 173 90 173 52 8 c60 10 75 3 43 -19 -26 -18 -28 -52 -12
-197 5 -51 14 -136 19 -190 7 -82 12 -102 32 -124 20 -21 21 -25 6 -20 -10 4
-54 7 -98 7 l-79 0 21 21 c20 20 21 28 15 113 -4 50 -10 106 -13 124 -5 32 -6
33 -18 10 -7 -13 -31 -56 -54 -97 -24 -40 -49 -90 -56 -110 -37 -103 -30 -101
-76 -14 -23 43 -59 111 -80 151 -44 84 -45 84 -53 -70 -4 -77 -2 -99 9 -108
26 -22 17 -25 -65 -25 -44 0 -80 2 -80 4 0 3 7 13 16 22 18 20 36 160 49 371
7 112 6 117 -14 130 -31 19 -26 23 28 23 l50 0 89 -178z m2094 152 c20 -10 46
-19 58 -19 24 0 25 -8 4 -31 -9 -10 -18 -36 -21 -59 -5 -38 -6 -39 -20 -20
-23 33 -72 52 -137 54 -78 1 -118 -16 -151 -64 -51 -74 -25 -214 49 -259 70
-43 168 -35 229 19 l33 28 18 -50 c20 -57 23 -52 -59 -95 -40 -21 -64 -27
-120 -27 -160 -1 -285 115 -285 262 0 137 79 242 208 278 58 17 143 9 194 -17z
m571 19 c-2 -5 -3 -41 -3 -80 0 -65 -2 -70 -13 -48 -12 24 -16 25 -130 28
l-117 3 0 -61 0 -60 88 0 c55 0 92 4 100 12 9 9 12 -4 12 -60 0 -41 -4 -72
-10 -72 -5 0 -10 5 -10 10 0 6 -37 10 -90 10 l-90 0 0 -66 0 -67 117 5 c111 5
118 7 139 32 30 34 34 33 28 -6 -2 -18 -6 -52 -7 -76 l-4 -43 -205 -2 c-205
-2 -205 -2 -192 19 10 14 16 84 20 251 7 229 7 231 -15 249 -21 19 -19 19 161
25 219 6 224 6 221 -3z m286 -14 c-17 -19 -19 -36 -19 -221 l0 -201 26 -6 c33
-9 162 3 188 16 10 6 29 22 42 37 l23 26 -9 -35 c-4 -19 -11 -60 -15 -90 l-6
-55 -194 0 c-107 0 -195 2 -195 4 0 3 6 12 14 20 11 12 16 70 21 244 l8 228
-28 29 -27 28 95 -2 96 -1 -20 -21z m500 5 c-22 -16 -22 -22 -21 -225 l0 -209
104 3 c103 3 103 3 135 37 l32 34 -6 -82 c-3 -45 -8 -84 -10 -86 -2 -3 -93 -5
-203 -5 -193 -1 -198 0 -182 18 15 16 17 50 20 248 l3 231 -27 28 -26 28 101
-2 c96 -2 100 -2 80 -18z m700 -9 c57 -29 118 -92 142 -146 56 -132 -16 -296
-160 -362 -92 -42 -206 -20 -295 59 -82 71 -105 209 -54 320 32 70 105 127
193 150 47 13 128 3 174 -21z m-2716 9 c81 -22 135 -100 124 -180 -6 -43 -56
-114 -88 -124 -19 -6 -19 -7 3 -48 13 -22 56 -74 96 -115 l74 -75 -39 6 c-21
4 -60 7 -88 7 -41 0 -53 4 -65 24 -71 112 -113 166 -128 166 -9 0 -27 3 -39 6
-23 6 -23 5 -23 -80 0 -75 3 -87 20 -98 11 -7 20 -15 20 -18 0 -3 -40 -5 -90
-5 -49 0 -90 1 -90 3 0 1 6 13 14 25 10 16 15 78 18 246 5 224 5 225 -18 248
l-23 23 142 0 c78 0 159 -5 180 -11z m-515 -737 c12 -26 37 -84 56 -129 l34
-83 -34 0 c-30 0 -35 4 -40 30 -6 29 -9 30 -60 30 -50 0 -53 -1 -56 -27 -3
-24 -8 -28 -40 -31 l-38 -3 41 98 c63 151 76 172 97 166 11 -2 29 -26 40 -51z
m190 52 c20 -6 22 -12 22 -83 0 -98 23 -130 78 -110 21 8 22 14 22 98 l0 89
28 4 27 4 2 -81 c2 -102 -9 -139 -51 -165 -40 -24 -58 -25 -100 -5 -52 25 -66
60 -66 164 0 50 3 91 8 91 4 0 17 -3 30 -6z m440 -29 c-3 -25 -7 -29 -33 -30
l-30 0 2 -102 1 -102 -34 1 c-32 1 -34 3 -32 32 1 17 1 64 0 104 l-2 72 -35 0
c-32 0 -35 3 -35 28 l0 27 100 0 101 0 -3 -30z m240 21 c50 -26 75 -62 80
-115 4 -46 2 -52 -34 -91 -65 -69 -151 -65 -204 10 -45 63 -25 136 50 188 38
25 70 28 108 8z m484 -7 c24 -13 23 -25 -3 -42 -17 -13 -25 -13 -45 -2 -71 37
-128 -62 -69 -120 14 -15 36 -25 53 -25 35 0 41 5 35 31 -5 16 -11 19 -30 14
-22 -5 -24 -3 -21 22 3 26 6 28 38 24 19 -3 45 -5 58 -5 20 -1 22 -6 22 -61
l0 -61 -45 -12 c-62 -17 -85 -15 -123 8 -96 59 -95 186 1 231 42 19 90 19 129
-2z m186 -3 c8 -5 26 -32 42 -59 l27 -48 39 65 c35 61 41 66 72 66 27 0 32 -3
24 -13 -8 -9 -9 -52 -4 -135 l7 -122 -32 0 -33 0 -1 58 c-1 31 -1 63 0 70 3
23 -7 12 -38 -43 -17 -30 -33 -55 -36 -55 -3 0 -19 21 -35 47 l-30 47 0 -62 0
-62 -31 0 c-24 0 -29 4 -25 18 3 9 6 69 8 133 3 122 6 127 46 95z m477 -11
c28 -28 32 -57 10 -75 -14 -12 -13 -16 11 -41 25 -26 26 -30 14 -59 -17 -42
-57 -60 -132 -60 l-63 0 3 101 c2 55 -1 114 -7 130 l-10 29 75 0 c66 0 78 -3
99 -25z m188 -25 l-6 -50 45 0 c49 0 58 11 58 73 0 24 4 27 33 27 l32 0 -3
-130 -3 -131 -32 4 c-29 3 -32 6 -29 35 6 56 -5 72 -48 72 -45 0 -56 -19 -45
-76 6 -33 5 -34 -24 -34 l-30 0 -3 130 -3 130 32 0 32 0 -6 -50z m-2453 -80
l0 -30 -440 0 c-467 0 -451 -2 -434 44 5 14 54 16 440 16 l434 0 0 -30z m3620
0 l0 -30 -450 0 -450 0 0 30 0 30 450 0 450 0 0 -30z"/>
<path d="M2595 2789 c-216 -19 -328 -58 -430 -151 -30 -27 -55 -53 -55 -57 0
-13 153 -31 355 -42 371 -22 1105 6 1105 41 0 10 -122 108 -170 137 -111 67
-475 100 -805 72z m375 -34 c6 -8 10 -22 8 -32 -3 -16 -16 -18 -133 -18 -129
0 -130 0 -133 24 -2 13 2 28 10 32 7 5 63 9 124 9 85 0 114 -3 124 -15z"/>
<path d="M1750 2591 c0 -8 74 -31 99 -31 6 0 11 9 11 20 0 18 -7 20 -55 20
-30 0 -55 -4 -55 -9z"/>
<path d="M3817 2580 c4 -13 11 -19 22 -16 9 2 31 7 49 11 46 9 29 25 -28 25
-43 0 -48 -2 -43 -20z"/>
<path d="M2090 2506 c0 -2 80 -63 178 -136 175 -131 219 -171 207 -190 -13
-22 -55 -8 -113 38 -108 85 -308 229 -342 247 -69 36 -187 1 -211 -62 -10 -28
-12 -145 -3 -192 5 -23 11 -30 23 -26 9 2 41 -7 71 -21 36 -17 99 -32 180 -44
69 -10 179 -28 245 -39 322 -54 690 -53 1045 4 52 8 156 24 230 35 163 25 160
24 228 67 l54 35 -4 77 c-3 44 -12 90 -22 109 -34 65 -120 91 -189 56 -57 -30
-263 -178 -355 -257 -23 -19 -43 -27 -60 -25 -59 7 -36 34 158 178 104 79 189
145 187 147 -9 9 -103 -29 -126 -51 -38 -36 -235 -154 -314 -188 -87 -37 -222
-49 -430 -38 -137 7 -152 10 -205 37 -70 37 -244 146 -292 183 -35 27 -140 69
-140 56z m1714 -147 c14 -11 26 -30 26 -42 0 -32 -35 -84 -72 -107 -47 -28
-199 -61 -308 -67 -92 -4 -129 4 -116 25 23 37 374 211 427 212 9 0 28 -9 43
-21z m-1805 -9 c173 -68 351 -175 335 -201 -14 -23 -237 -2 -347 33 -109 35
-161 105 -123 163 21 31 65 33 135 5z m887 -195 c13 -33 -35 -56 -80 -39 -16
6 -22 35 -9 47 13 14 84 7 89 -8z"/>
<path d="M3605 2253 c-151 -58 -132 -65 36 -13 85 27 124 50 108 64 -2 2 -67
-21 -144 -51z"/>
<path d="M1926 2285 c7 -16 53 -35 174 -70 83 -24 109 -26 73 -7 -21 12 -237
92 -246 92 -4 0 -4 -7 -1 -15z"/>
<path d="M2290 2482 c0 -19 263 -166 333 -187 60 -18 355 -21 427 -4 44 10
385 188 376 196 -2 2 -47 0 -99 -6 -227 -26 -918 -22 -1014 5 -14 4 -23 2 -23
-4z"/>
<path d="M3849 2134 c-13 -15 -43 -35 -66 -45 l-43 -18 41 -85 c40 -82 41 -87
25 -111 -23 -34 -109 -58 -195 -53 -59 3 -84 12 -226 82 l-160 79 -130 -4
c-71 -2 -245 -3 -387 -1 l-256 3 -153 -77 c-139 -70 -160 -78 -224 -82 -112
-7 -205 30 -205 82 0 22 71 133 93 148 7 4 -11 16 -38 28 -28 12 -65 33 -83
47 -18 14 -35 23 -37 22 -8 -8 22 -276 33 -295 24 -44 144 -79 243 -72 49 4
86 18 213 81 84 43 174 81 200 86 27 5 99 5 169 -1 67 -5 221 -6 342 -2 l220
6 149 -75 c82 -42 173 -81 201 -87 60 -12 154 -1 209 25 58 28 69 55 81 205 7
74 11 136 10 137 -1 2 -12 -9 -26 -23z"/>
<path d="M2017 2054 c-4 -4 -7 -13 -7 -21 0 -10 5 -11 18 -4 13 7 56 2 143
-15 131 -25 179 -30 179 -16 0 5 -62 19 -137 31 -76 13 -149 25 -163 28 -14 2
-28 1 -33 -3z"/>
<path d="M3595 2053 c-120 -16 -293 -53 -246 -53 7 0 59 -23 117 -52 110 -55
183 -70 237 -49 39 15 35 32 -5 20 -52 -14 -92 -11 -162 15 -66 23 -121 54
-114 62 12 11 232 43 256 37 24 -6 26 -5 13 10 -13 16 -33 18 -96 10z"/>
<path d="M2175 1942 c-69 -30 -171 -36 -199 -13 -13 11 -20 11 -29 2 -9 -9 -9
-14 3 -21 23 -14 114 -23 151 -15 45 10 135 50 143 64 10 15 1 13 -69 -17z"/>
<path d="M2440 1853 c-19 -7 -36 -13 -37 -13 -2 0 -3 -5 -3 -11 0 -5 4 -8 9
-5 4 3 206 6 447 6 384 1 437 3 420 16 -25 18 4 17 -431 18 -270 1 -379 -2
-405 -11z"/>
<path d="M1530 1297 c-18 -37 -30 -70 -27 -73 2 -3 32 -4 64 -2 l60 3 -32 70
-33 70 -32 -68z"/>
<path d="M4787 1435 c-26 -6 -57 -20 -68 -31 -75 -66 -61 -214 27 -280 31 -24
47 -29 95 -29 49 1 64 5 96 31 21 17 44 44 52 59 40 81 15 183 -56 228 -49 32
-87 38 -146 22z"/>
<path d="M2070 1365 l0 -75 53 -1 c110 -2 137 13 137 75 0 55 -33 76 -118 76
l-72 0 0 -75z"/>
<path d="M1672 735 c-17 -38 -15 -45 14 -45 22 0 24 3 18 23 -13 45 -20 49
-32 22z"/>
<path d="M2502 767 c-31 -33 -29 -80 4 -106 35 -28 59 -26 91 5 21 21 24 32
19 62 -10 63 -72 84 -114 39z"/>
<path d="M3650 765 c0 -20 5 -25 24 -25 25 0 36 15 29 38 -3 6 -16 12 -29 12
-19 0 -24 -5 -24 -25z"/>
<path d="M3650 665 c0 -24 3 -26 33 -23 24 2 32 8 32 23 0 15 -8 21 -32 23
-30 3 -33 1 -33 -23z"/>
</g>
</svg>
